M48
;GenerationSoftware,Autodesk,EAGLE,9.6.2*%
;CreationDate,2020-11-30T00:15:06Z*%
FMAT,2
ICI,OFF
METRIC,TZ,000.000
T10C0.381
T9C0.500
T8C0.800
T7C0.813
T6C1.000
T5C1.321
T4C2.500
T3C2.540
T2C2.794
T1C3.810
%
G90
M71
T1
X68580Y29210
X68580Y19050
T2
X35560Y17780
T3
X15240Y8890
X80010Y10160
X78740Y66040
X13970Y64770
T4
X65440Y94240
X-9560Y94240
X65440Y63240
X-9560Y63240
T5
X40640Y17780
X40640Y22860
X40640Y27940
X30480Y17780
X30480Y22860
X30480Y27940
T6
X21840Y63240
X24380Y63240
X26920Y63240
X29460Y63240
X32000Y63240
X34540Y63240
X37080Y63240
X39620Y63240
X42160Y63240
X44700Y63240
X47240Y63240
X52320Y63240
X54860Y63240
X57400Y63240
X49780Y63240
X59940Y63240
T7
X21590Y53340
X21590Y15240
X24130Y15240
X21590Y35560
X24130Y35560
X26670Y53340
X24130Y55880
T8
X33020Y44450
X35560Y44450
X35560Y49530
X33020Y49530
X33020Y46990
X35560Y46990
T9
X70340Y42970
X70340Y38970
T10
X40640Y46990
X63500Y46990
X52070Y41910
X41910Y45720
X44450Y45720
X59690Y49530
X59690Y46990
X44450Y40640
X44450Y41910
X46990Y44450
X44450Y43180
X44450Y48260
X40640Y48260
X46990Y46990
X46990Y45720
X43180Y44450
X55880Y22860
X52070Y22860
X43180Y46990
M30