G04 EAGLE Gerber RS-274X export*
G75*
%MOMM*%
%FSLAX34Y34*%
%LPD*%
%INTop Copper*%
%IPPOS*%
%AMOC8*
5,1,8,0,0,1.08239X$1,22.5*%
G01*
%ADD10C,1.981200*%
%ADD11P,1.415766X8X112.500000*%
%ADD12R,1.600000X0.550000*%
%ADD13R,0.550000X1.600000*%
%ADD14C,1.676400*%
%ADD15P,1.429621X8X202.500000*%
%ADD16C,1.000000*%
%ADD17P,1.429621X8X22.500000*%
%ADD18R,1.600000X1.300000*%
%ADD19R,1.300000X1.600000*%
%ADD20R,1.800000X0.400000*%
%ADD21R,1.350000X1.500000*%
%ADD22R,1.400000X1.500000*%
%ADD23R,1.100000X1.000000*%
%ADD24C,0.304800*%
%ADD25R,5.080000X5.080000*%
%ADD26C,0.685800*%
%ADD27C,0.203200*%


D10*
X294894Y177800D02*
X314706Y177800D01*
X314706Y228600D02*
X294894Y228600D01*
X294894Y279400D02*
X314706Y279400D01*
X396494Y177800D02*
X416306Y177800D01*
X416306Y228600D02*
X396494Y228600D01*
X396494Y279400D02*
X416306Y279400D01*
D11*
X330200Y469900D03*
X355600Y469900D03*
X330200Y444500D03*
X355600Y444500D03*
X355600Y495300D03*
X330200Y495300D03*
D12*
X575200Y454600D03*
X575200Y462600D03*
X575200Y470600D03*
X575200Y478600D03*
X575200Y486600D03*
X575200Y494600D03*
X575200Y502600D03*
X575200Y510600D03*
D13*
X561400Y524400D03*
X553400Y524400D03*
X545400Y524400D03*
X537400Y524400D03*
X529400Y524400D03*
X521400Y524400D03*
X513400Y524400D03*
X505400Y524400D03*
D12*
X491600Y510600D03*
X491600Y502600D03*
X491600Y494600D03*
X491600Y486600D03*
X491600Y478600D03*
X491600Y470600D03*
X491600Y462600D03*
X491600Y454600D03*
D13*
X505400Y440800D03*
X513400Y440800D03*
X521400Y440800D03*
X529400Y440800D03*
X537400Y440800D03*
X545400Y440800D03*
X553400Y440800D03*
X561400Y440800D03*
D14*
X599400Y632400D03*
X574000Y632400D03*
X548600Y632400D03*
X523200Y632400D03*
X497800Y632400D03*
X472400Y632400D03*
X447000Y632400D03*
X421600Y632400D03*
X396200Y632400D03*
X370800Y632400D03*
X345400Y632400D03*
X320000Y632400D03*
X294600Y632400D03*
X269200Y632400D03*
X243800Y632400D03*
X218400Y632400D03*
D15*
X241300Y355600D03*
X215900Y355600D03*
X241300Y152400D03*
X215900Y152400D03*
D16*
X165100Y635000D03*
X177800Y114300D03*
X762000Y127000D03*
X749300Y635000D03*
D17*
X215900Y533400D03*
X266700Y533400D03*
X241300Y558800D03*
D18*
X596900Y200000D03*
X596900Y181000D03*
X596900Y276200D03*
X596900Y257200D03*
D19*
X581000Y330200D03*
X562000Y330200D03*
D18*
X546100Y200000D03*
X546100Y181000D03*
X546100Y276200D03*
X546100Y257200D03*
D19*
X473100Y330200D03*
X492100Y330200D03*
X492100Y279400D03*
X473100Y279400D03*
X492100Y228600D03*
X473100Y228600D03*
D18*
X241300Y250800D03*
X241300Y231800D03*
X241300Y454000D03*
X241300Y435000D03*
D19*
X295300Y533400D03*
X314300Y533400D03*
D20*
X710400Y409700D03*
X710600Y403200D03*
X710600Y396700D03*
X710400Y416200D03*
X710400Y422700D03*
D21*
X682000Y369050D03*
X681950Y450500D03*
D22*
X708900Y442200D03*
X708900Y377200D03*
D23*
X670400Y394700D03*
X670400Y424700D03*
D24*
X539700Y276200D02*
X492100Y228600D01*
X539700Y276200D02*
X546100Y276200D01*
X492100Y228600D02*
X483156Y219656D01*
X483156Y219127D01*
X467229Y203200D01*
X457200Y203200D01*
X431800Y228600D01*
X431800Y266700D01*
X419100Y279400D01*
X406400Y279400D01*
X533400Y330200D02*
X562000Y330200D01*
X533400Y330200D02*
X492100Y330200D01*
X533400Y330200D02*
X558800Y355600D01*
X622300Y355600D02*
X685800Y292100D01*
D25*
X685800Y292100D03*
D24*
X609600Y355600D02*
X558800Y355600D01*
X609600Y355600D02*
X622300Y355600D01*
X596900Y314300D02*
X596900Y276200D01*
X596900Y314300D02*
X581000Y330200D01*
X330200Y203200D02*
X304800Y177800D01*
X330200Y203200D02*
X431800Y203200D01*
X457200Y177800D01*
X469900Y177800D01*
X520700Y228600D01*
D26*
X520700Y228600D03*
X558800Y228600D03*
D24*
X587427Y267256D02*
X587956Y267256D01*
X596900Y276200D01*
X558800Y238629D02*
X558800Y228600D01*
X558800Y238629D02*
X587427Y267256D01*
D26*
X431800Y444500D03*
X469900Y457200D03*
D27*
X475300Y462600D01*
X491600Y462600D01*
X431800Y444500D02*
X419100Y444500D01*
X279400Y304800D01*
X342900Y228600D02*
X317500Y203200D01*
X292100Y203200D01*
X279400Y215900D01*
X279400Y304800D01*
X342900Y228600D02*
X406400Y228600D01*
X513400Y535300D02*
X508000Y540700D01*
X513400Y535300D02*
X513400Y524400D01*
X477200Y540700D02*
X444500Y508000D01*
X477200Y540700D02*
X508000Y540700D01*
X346012Y485712D02*
X330200Y469900D01*
X346012Y485712D02*
X346012Y499272D01*
X354741Y508000D01*
X444500Y508000D01*
X537400Y440800D02*
X537400Y419100D01*
X419100Y469900D02*
X419100Y482600D01*
X406400Y495300D02*
X355600Y495300D01*
X419100Y469900D02*
X482600Y406400D01*
X524700Y406400D02*
X537400Y419100D01*
X524700Y406400D02*
X482600Y406400D01*
X419100Y482600D02*
X406400Y495300D01*
X317500Y530200D02*
X314300Y533400D01*
X317500Y530200D02*
X317500Y469041D01*
X355600Y483460D02*
X355600Y495300D01*
X355600Y483460D02*
X346012Y473872D01*
X346012Y460312D02*
X342900Y457200D01*
X346012Y460312D02*
X346012Y473872D01*
X342900Y457200D02*
X329341Y457200D01*
X317500Y469041D01*
X355600Y469900D02*
X368300Y469900D01*
X381000Y482600D01*
X444500Y482600D02*
X472500Y510600D01*
X491600Y510600D01*
D26*
X406400Y482600D03*
D27*
X381000Y482600D01*
D26*
X444500Y482600D03*
D27*
X478600Y478600D02*
X491600Y478600D01*
X478600Y478600D02*
X469900Y469900D01*
D26*
X469900Y469900D03*
D25*
X685800Y190500D03*
D24*
X596900Y181000D02*
X546100Y181000D01*
D27*
X575200Y486600D02*
X631000Y486600D01*
X685000Y422700D02*
X710400Y422700D01*
X685000Y422700D02*
X673272Y410972D01*
X647700Y469900D02*
X631000Y486600D01*
X660400Y410972D02*
X673272Y410972D01*
X575200Y486600D02*
X533400Y486600D01*
X525400Y478600D02*
X491600Y478600D01*
X525400Y478600D02*
X533400Y486600D01*
X647700Y423672D02*
X660400Y410972D01*
X647700Y423672D02*
X647700Y469900D01*
D24*
X606929Y190500D02*
X606373Y189944D01*
X605844Y189944D01*
X596900Y181000D01*
X606929Y190500D02*
X685800Y190500D01*
D26*
X444500Y431800D03*
X469900Y444500D03*
D27*
X480000Y454600D01*
X491600Y454600D01*
X444500Y431800D02*
X330200Y317500D01*
X330200Y254000D01*
X304800Y228600D01*
X545400Y418400D02*
X545400Y440800D01*
X520700Y393700D02*
X469900Y393700D01*
X444500Y419100D01*
D26*
X444500Y419100D03*
D27*
X520700Y393700D02*
X545400Y418400D01*
X553400Y413700D02*
X553400Y440800D01*
X553400Y413700D02*
X520700Y381000D01*
X469900Y381000D01*
X444500Y406400D01*
D26*
X444500Y406400D03*
D27*
X575200Y462600D02*
X589600Y462600D01*
X596900Y469900D01*
D26*
X596900Y469900D03*
X596900Y495300D03*
D27*
X596900Y533400D01*
X520700Y609600D01*
X368200Y609600D02*
X345400Y632400D01*
X368200Y609600D02*
X520700Y609600D01*
X520700Y596900D02*
X561400Y556200D01*
X561400Y524400D01*
X355500Y596900D02*
X320000Y632400D01*
X355500Y596900D02*
X520700Y596900D01*
X553400Y551500D02*
X553400Y524400D01*
X342800Y584200D02*
X294600Y632400D01*
X520700Y584200D02*
X553400Y551500D01*
X520700Y584200D02*
X342800Y584200D01*
X545400Y524400D02*
X546100Y525100D01*
X546100Y546100D02*
X520700Y571500D01*
X546100Y546100D02*
X546100Y525100D01*
X330100Y571500D02*
X269200Y632400D01*
X330100Y571500D02*
X520700Y571500D01*
X537400Y542100D02*
X537400Y524400D01*
X514477Y565023D02*
X273873Y565023D01*
X241300Y532450D01*
X514477Y565023D02*
X537400Y542100D01*
X241300Y532450D02*
X241300Y454000D01*
D24*
X241300Y558800D02*
X257262Y574762D01*
X257262Y637345D01*
X280317Y660400D01*
X520700Y660400D01*
X548600Y632500D02*
X548600Y632400D01*
X548600Y632500D02*
X520700Y660400D01*
X491600Y486600D02*
X473900Y486600D01*
X469900Y482600D01*
D26*
X444500Y457200D03*
D24*
X469900Y482600D01*
D26*
X419100Y457200D03*
D24*
X393700Y431800D01*
X342900Y431800D01*
X330200Y444500D01*
X477200Y502600D02*
X491600Y502600D01*
X477200Y502600D02*
X469900Y495300D01*
X469900Y482600D01*
X444500Y457200D02*
X482600Y419100D01*
X520700Y419100D01*
D26*
X520700Y419100D03*
D24*
X575200Y478600D02*
X626300Y478600D01*
X635000Y469900D01*
D26*
X635000Y469900D03*
D24*
X266700Y508000D02*
X266700Y533400D01*
X266700Y508000D02*
X330200Y444500D01*
X635000Y469900D02*
X635000Y419100D01*
X647700Y406400D01*
X685800Y406400D01*
X695500Y396700D02*
X710600Y396700D01*
X695500Y396700D02*
X685800Y406400D01*
X295300Y533400D02*
X266700Y533400D01*
D27*
X355600Y444500D02*
X381000Y469900D01*
X406400Y469900D01*
D26*
X406400Y469900D03*
X431800Y469900D03*
D27*
X431800Y482600D01*
X473600Y524400D02*
X505400Y524400D01*
X473600Y524400D02*
X431800Y482600D01*
D24*
X241300Y435000D02*
X241300Y355600D01*
X241300Y231800D02*
X241300Y152400D01*
D27*
X529400Y524400D02*
X529400Y533400D01*
X504000Y558800D02*
X278450Y558800D01*
X254000Y534350D01*
X254000Y263500D02*
X241300Y250800D01*
X254000Y263500D02*
X254000Y534350D01*
X504000Y558800D02*
X529400Y533400D01*
D24*
X596900Y257200D02*
X596900Y200000D01*
X546100Y200000D02*
X546100Y257200D01*
X473100Y279400D02*
X473100Y330200D01*
X492100Y279400D02*
X492100Y250800D01*
X473100Y231800D02*
X473100Y228600D01*
X473100Y231800D02*
X492100Y250800D01*
M02*
