G04 EAGLE Gerber RS-274X export*
G75*
%MOMM*%
%FSLAX34Y34*%
%LPD*%
%INBottom Copper*%
%IPPOS*%
%AMOC8*
5,1,8,0,0,1.08239X$1,22.5*%
G01*
%ADD10C,1.981200*%
%ADD11P,1.415766X8X112.500000*%
%ADD12C,1.676400*%
%ADD13P,1.429621X8X202.500000*%
%ADD14P,1.429621X8X22.500000*%
%ADD15R,5.080000X5.080000*%
%ADD16C,0.685800*%
%ADD17C,0.304800*%
%ADD18C,0.203200*%

G36*
X141492Y74688D02*
X141492Y74688D01*
X141592Y74690D01*
X141664Y74708D01*
X141738Y74717D01*
X141833Y74750D01*
X141930Y74775D01*
X141996Y74809D01*
X142066Y74834D01*
X142151Y74889D01*
X142240Y74935D01*
X142297Y74983D01*
X142359Y75023D01*
X142429Y75095D01*
X142506Y75160D01*
X142550Y75220D01*
X142601Y75274D01*
X142653Y75360D01*
X142713Y75441D01*
X142742Y75509D01*
X142780Y75573D01*
X142811Y75669D01*
X142851Y75761D01*
X142864Y75834D01*
X142887Y75905D01*
X142895Y76005D01*
X142912Y76104D01*
X142909Y76178D01*
X142914Y76252D01*
X142900Y76352D01*
X142894Y76452D01*
X142874Y76523D01*
X142863Y76597D01*
X142826Y76690D01*
X142798Y76787D01*
X142762Y76852D01*
X142734Y76921D01*
X142677Y77003D01*
X142628Y77091D01*
X142563Y77167D01*
X142535Y77207D01*
X142509Y77231D01*
X142469Y77277D01*
X139480Y80267D01*
X137159Y85868D01*
X137159Y91932D01*
X139480Y97533D01*
X143767Y101820D01*
X149368Y104141D01*
X155432Y104141D01*
X161033Y101820D01*
X165320Y97533D01*
X167641Y91932D01*
X167641Y85868D01*
X165320Y80267D01*
X162331Y77277D01*
X162268Y77199D01*
X162199Y77126D01*
X162160Y77062D01*
X162114Y77004D01*
X162071Y76913D01*
X162020Y76827D01*
X161997Y76756D01*
X161965Y76689D01*
X161944Y76591D01*
X161913Y76495D01*
X161908Y76421D01*
X161892Y76348D01*
X161894Y76248D01*
X161886Y76148D01*
X161897Y76074D01*
X161898Y76000D01*
X161922Y75903D01*
X161937Y75803D01*
X161965Y75734D01*
X161983Y75662D01*
X162029Y75573D01*
X162066Y75479D01*
X162108Y75418D01*
X162142Y75352D01*
X162208Y75276D01*
X162265Y75193D01*
X162320Y75143D01*
X162368Y75087D01*
X162449Y75027D01*
X162524Y74960D01*
X162589Y74924D01*
X162649Y74879D01*
X162741Y74840D01*
X162829Y74791D01*
X162900Y74771D01*
X162969Y74741D01*
X163067Y74724D01*
X163164Y74696D01*
X163264Y74688D01*
X163312Y74680D01*
X163347Y74682D01*
X163408Y74677D01*
X812800Y74677D01*
X812826Y74680D01*
X812852Y74678D01*
X812999Y74700D01*
X813146Y74717D01*
X813171Y74725D01*
X813197Y74729D01*
X813335Y74784D01*
X813474Y74834D01*
X813496Y74848D01*
X813521Y74858D01*
X813642Y74943D01*
X813767Y75023D01*
X813785Y75042D01*
X813807Y75057D01*
X813906Y75167D01*
X814009Y75274D01*
X814023Y75296D01*
X814040Y75316D01*
X814112Y75446D01*
X814188Y75573D01*
X814196Y75598D01*
X814209Y75621D01*
X814249Y75764D01*
X814294Y75905D01*
X814296Y75931D01*
X814304Y75956D01*
X814323Y76200D01*
X814323Y90592D01*
X814312Y90692D01*
X814310Y90792D01*
X814292Y90864D01*
X814283Y90938D01*
X814250Y91033D01*
X814225Y91130D01*
X814191Y91196D01*
X814166Y91266D01*
X814111Y91351D01*
X814065Y91440D01*
X814017Y91497D01*
X813977Y91559D01*
X813905Y91629D01*
X813840Y91706D01*
X813780Y91750D01*
X813726Y91801D01*
X813640Y91853D01*
X813559Y91913D01*
X813491Y91942D01*
X813427Y91980D01*
X813331Y92011D01*
X813239Y92051D01*
X813166Y92064D01*
X813095Y92087D01*
X812995Y92095D01*
X812896Y92112D01*
X812822Y92109D01*
X812748Y92114D01*
X812648Y92100D01*
X812548Y92094D01*
X812477Y92074D01*
X812403Y92063D01*
X812310Y92026D01*
X812213Y91998D01*
X812148Y91962D01*
X812079Y91934D01*
X811997Y91877D01*
X811909Y91828D01*
X811833Y91763D01*
X811793Y91735D01*
X811769Y91709D01*
X811723Y91669D01*
X808733Y88680D01*
X803132Y86359D01*
X797068Y86359D01*
X791467Y88680D01*
X787180Y92967D01*
X784859Y98568D01*
X784859Y104632D01*
X787180Y110233D01*
X791467Y114520D01*
X797068Y116841D01*
X803132Y116841D01*
X808733Y114520D01*
X811723Y111531D01*
X811801Y111468D01*
X811874Y111399D01*
X811938Y111360D01*
X811996Y111314D01*
X812087Y111271D01*
X812173Y111220D01*
X812244Y111197D01*
X812311Y111165D01*
X812409Y111144D01*
X812505Y111113D01*
X812579Y111108D01*
X812652Y111092D01*
X812752Y111094D01*
X812852Y111086D01*
X812926Y111097D01*
X813000Y111098D01*
X813097Y111122D01*
X813197Y111137D01*
X813266Y111165D01*
X813338Y111183D01*
X813428Y111229D01*
X813521Y111266D01*
X813582Y111308D01*
X813648Y111342D01*
X813725Y111408D01*
X813807Y111465D01*
X813857Y111520D01*
X813913Y111568D01*
X813973Y111649D01*
X814040Y111724D01*
X814076Y111789D01*
X814121Y111849D01*
X814160Y111941D01*
X814209Y112029D01*
X814229Y112100D01*
X814259Y112169D01*
X814276Y112267D01*
X814304Y112364D01*
X814312Y112464D01*
X814320Y112512D01*
X814318Y112547D01*
X814323Y112608D01*
X814323Y673100D01*
X814320Y673126D01*
X814322Y673152D01*
X814300Y673299D01*
X814283Y673446D01*
X814275Y673471D01*
X814271Y673497D01*
X814216Y673635D01*
X814166Y673774D01*
X814152Y673796D01*
X814142Y673821D01*
X814057Y673942D01*
X813977Y674067D01*
X813958Y674085D01*
X813943Y674107D01*
X813833Y674206D01*
X813726Y674309D01*
X813704Y674323D01*
X813684Y674340D01*
X813554Y674412D01*
X813427Y674488D01*
X813402Y674496D01*
X813379Y674509D01*
X813236Y674549D01*
X813095Y674594D01*
X813069Y674596D01*
X813044Y674604D01*
X812800Y674623D01*
X798408Y674623D01*
X798308Y674612D01*
X798208Y674610D01*
X798136Y674592D01*
X798062Y674583D01*
X797967Y674550D01*
X797870Y674525D01*
X797804Y674491D01*
X797734Y674466D01*
X797649Y674411D01*
X797560Y674365D01*
X797503Y674317D01*
X797441Y674277D01*
X797371Y674205D01*
X797294Y674140D01*
X797250Y674080D01*
X797199Y674026D01*
X797147Y673940D01*
X797087Y673859D01*
X797058Y673791D01*
X797020Y673727D01*
X796989Y673631D01*
X796949Y673539D01*
X796936Y673466D01*
X796913Y673395D01*
X796905Y673295D01*
X796888Y673196D01*
X796891Y673122D01*
X796886Y673048D01*
X796900Y672948D01*
X796906Y672848D01*
X796926Y672777D01*
X796937Y672703D01*
X796974Y672610D01*
X797002Y672513D01*
X797038Y672448D01*
X797066Y672379D01*
X797123Y672297D01*
X797172Y672209D01*
X797237Y672133D01*
X797265Y672093D01*
X797291Y672069D01*
X797331Y672023D01*
X800320Y669033D01*
X802641Y663432D01*
X802641Y657368D01*
X800320Y651767D01*
X796033Y647480D01*
X790432Y645159D01*
X784368Y645159D01*
X778767Y647480D01*
X774480Y651767D01*
X772159Y657368D01*
X772159Y663432D01*
X774480Y669033D01*
X777469Y672023D01*
X777532Y672101D01*
X777601Y672174D01*
X777640Y672238D01*
X777686Y672296D01*
X777729Y672387D01*
X777780Y672473D01*
X777803Y672544D01*
X777835Y672611D01*
X777856Y672709D01*
X777887Y672805D01*
X777892Y672879D01*
X777908Y672952D01*
X777906Y673052D01*
X777914Y673152D01*
X777903Y673226D01*
X777902Y673300D01*
X777878Y673397D01*
X777863Y673497D01*
X777835Y673566D01*
X777817Y673638D01*
X777771Y673728D01*
X777734Y673821D01*
X777692Y673882D01*
X777658Y673948D01*
X777592Y674025D01*
X777535Y674107D01*
X777480Y674157D01*
X777432Y674213D01*
X777351Y674273D01*
X777276Y674340D01*
X777211Y674376D01*
X777151Y674421D01*
X777059Y674460D01*
X776971Y674509D01*
X776900Y674529D01*
X776831Y674559D01*
X776733Y674576D01*
X776636Y674604D01*
X776536Y674612D01*
X776488Y674620D01*
X776453Y674618D01*
X776392Y674623D01*
X127000Y674623D01*
X126974Y674620D01*
X126948Y674622D01*
X126801Y674600D01*
X126654Y674583D01*
X126629Y674575D01*
X126603Y674571D01*
X126465Y674516D01*
X126326Y674466D01*
X126304Y674452D01*
X126279Y674442D01*
X126158Y674357D01*
X126033Y674277D01*
X126015Y674258D01*
X125993Y674243D01*
X125894Y674133D01*
X125791Y674026D01*
X125777Y674004D01*
X125760Y673984D01*
X125688Y673854D01*
X125612Y673727D01*
X125604Y673702D01*
X125591Y673679D01*
X125551Y673536D01*
X125506Y673395D01*
X125504Y673369D01*
X125496Y673344D01*
X125477Y673100D01*
X125477Y658708D01*
X125488Y658608D01*
X125490Y658508D01*
X125508Y658436D01*
X125517Y658362D01*
X125550Y658267D01*
X125575Y658170D01*
X125609Y658104D01*
X125634Y658034D01*
X125689Y657949D01*
X125735Y657860D01*
X125783Y657803D01*
X125823Y657741D01*
X125895Y657671D01*
X125960Y657594D01*
X126020Y657550D01*
X126074Y657499D01*
X126160Y657447D01*
X126241Y657387D01*
X126309Y657358D01*
X126373Y657320D01*
X126469Y657289D01*
X126561Y657249D01*
X126634Y657236D01*
X126705Y657213D01*
X126805Y657205D01*
X126904Y657188D01*
X126978Y657191D01*
X127052Y657186D01*
X127152Y657200D01*
X127252Y657206D01*
X127323Y657226D01*
X127397Y657237D01*
X127490Y657274D01*
X127587Y657302D01*
X127652Y657338D01*
X127721Y657366D01*
X127803Y657423D01*
X127891Y657472D01*
X127967Y657537D01*
X128007Y657565D01*
X128031Y657591D01*
X128077Y657631D01*
X131067Y660620D01*
X136668Y662941D01*
X142732Y662941D01*
X148333Y660620D01*
X152620Y656333D01*
X154941Y650732D01*
X154941Y644668D01*
X152620Y639067D01*
X148333Y634780D01*
X142732Y632459D01*
X136668Y632459D01*
X131067Y634780D01*
X128077Y637769D01*
X127999Y637832D01*
X127926Y637901D01*
X127862Y637940D01*
X127804Y637986D01*
X127713Y638029D01*
X127627Y638080D01*
X127556Y638103D01*
X127489Y638135D01*
X127391Y638156D01*
X127295Y638187D01*
X127221Y638192D01*
X127148Y638208D01*
X127048Y638206D01*
X126948Y638214D01*
X126874Y638203D01*
X126800Y638202D01*
X126703Y638178D01*
X126603Y638163D01*
X126534Y638135D01*
X126462Y638117D01*
X126373Y638071D01*
X126279Y638034D01*
X126218Y637992D01*
X126152Y637958D01*
X126076Y637892D01*
X125993Y637835D01*
X125943Y637780D01*
X125887Y637732D01*
X125827Y637651D01*
X125760Y637576D01*
X125724Y637511D01*
X125679Y637451D01*
X125640Y637359D01*
X125591Y637271D01*
X125571Y637200D01*
X125541Y637131D01*
X125524Y637033D01*
X125496Y636936D01*
X125488Y636836D01*
X125480Y636788D01*
X125482Y636753D01*
X125477Y636692D01*
X125477Y76200D01*
X125480Y76174D01*
X125478Y76148D01*
X125500Y76001D01*
X125517Y75854D01*
X125525Y75829D01*
X125529Y75803D01*
X125584Y75665D01*
X125634Y75526D01*
X125648Y75504D01*
X125658Y75479D01*
X125743Y75358D01*
X125823Y75233D01*
X125842Y75215D01*
X125857Y75193D01*
X125967Y75094D01*
X126074Y74991D01*
X126096Y74977D01*
X126116Y74960D01*
X126246Y74888D01*
X126373Y74812D01*
X126398Y74804D01*
X126421Y74791D01*
X126564Y74751D01*
X126705Y74706D01*
X126731Y74704D01*
X126756Y74696D01*
X127000Y74677D01*
X141392Y74677D01*
X141492Y74688D01*
G37*
%LPC*%
G36*
X443414Y400938D02*
X443414Y400938D01*
X441406Y401770D01*
X439870Y403306D01*
X439038Y405314D01*
X439038Y406919D01*
X439024Y407045D01*
X439017Y407171D01*
X439004Y407217D01*
X438998Y407265D01*
X438956Y407384D01*
X438921Y407506D01*
X438897Y407548D01*
X438881Y407594D01*
X438812Y407700D01*
X438751Y407810D01*
X438711Y407856D01*
X438692Y407886D01*
X438657Y407920D01*
X438592Y407996D01*
X377951Y468637D01*
X377951Y542263D01*
X380183Y544495D01*
X462446Y626758D01*
X462494Y626818D01*
X462549Y626871D01*
X462602Y626954D01*
X462663Y627031D01*
X462696Y627100D01*
X462737Y627164D01*
X462770Y627257D01*
X462812Y627346D01*
X462828Y627421D01*
X462854Y627493D01*
X462865Y627591D01*
X462885Y627687D01*
X462884Y627763D01*
X462893Y627839D01*
X462881Y627937D01*
X462879Y628035D01*
X462861Y628109D01*
X462852Y628185D01*
X462806Y628327D01*
X462794Y628373D01*
X462786Y628390D01*
X462777Y628418D01*
X461985Y630328D01*
X461985Y634472D01*
X463571Y638300D01*
X466500Y641229D01*
X470328Y642815D01*
X474472Y642815D01*
X478300Y641229D01*
X481229Y638300D01*
X482815Y634472D01*
X482815Y630328D01*
X481229Y626500D01*
X478300Y623571D01*
X474472Y621985D01*
X470328Y621985D01*
X468418Y622777D01*
X468344Y622798D01*
X468274Y622828D01*
X468178Y622845D01*
X468083Y622872D01*
X468007Y622876D01*
X467931Y622890D01*
X467833Y622884D01*
X467735Y622889D01*
X467660Y622876D01*
X467583Y622872D01*
X467489Y622844D01*
X467392Y622827D01*
X467322Y622796D01*
X467248Y622775D01*
X467162Y622727D01*
X467072Y622688D01*
X467011Y622642D01*
X466944Y622605D01*
X466830Y622508D01*
X466793Y622480D01*
X466780Y622465D01*
X466758Y622446D01*
X384495Y540183D01*
X384416Y540084D01*
X384332Y539990D01*
X384308Y539948D01*
X384278Y539910D01*
X384224Y539796D01*
X384163Y539685D01*
X384150Y539639D01*
X384129Y539595D01*
X384103Y539472D01*
X384068Y539350D01*
X384063Y539289D01*
X384056Y539254D01*
X384057Y539206D01*
X384049Y539106D01*
X384049Y471794D01*
X384063Y471668D01*
X384070Y471542D01*
X384083Y471496D01*
X384089Y471448D01*
X384131Y471329D01*
X384166Y471207D01*
X384190Y471165D01*
X384206Y471119D01*
X384275Y471013D01*
X384336Y470903D01*
X384376Y470857D01*
X384395Y470827D01*
X384430Y470793D01*
X384495Y470717D01*
X388051Y467161D01*
X388129Y467098D01*
X388202Y467028D01*
X388266Y466990D01*
X388324Y466944D01*
X388415Y466901D01*
X388501Y466850D01*
X388572Y466827D01*
X388639Y466795D01*
X388737Y466774D01*
X388833Y466743D01*
X388907Y466737D01*
X388980Y466722D01*
X389080Y466723D01*
X389180Y466715D01*
X389254Y466726D01*
X389328Y466728D01*
X389425Y466752D01*
X389525Y466767D01*
X389594Y466795D01*
X389666Y466813D01*
X389755Y466859D01*
X389849Y466896D01*
X389910Y466938D01*
X389976Y466972D01*
X390052Y467037D01*
X390135Y467095D01*
X390185Y467150D01*
X390241Y467198D01*
X390301Y467279D01*
X390368Y467354D01*
X390404Y467419D01*
X390449Y467478D01*
X390488Y467571D01*
X390537Y467659D01*
X390557Y467730D01*
X390587Y467798D01*
X390604Y467897D01*
X390632Y467994D01*
X390640Y468094D01*
X390648Y468141D01*
X390646Y468177D01*
X390651Y468238D01*
X390651Y534663D01*
X465075Y609087D01*
X467307Y611319D01*
X487941Y611319D01*
X488066Y611333D01*
X488192Y611340D01*
X488239Y611353D01*
X488287Y611359D01*
X488406Y611401D01*
X488527Y611436D01*
X488569Y611460D01*
X488615Y611476D01*
X488721Y611545D01*
X488832Y611606D01*
X488878Y611646D01*
X488908Y611665D01*
X488941Y611700D01*
X489018Y611765D01*
X496372Y619119D01*
X496468Y619240D01*
X496567Y619359D01*
X496576Y619376D01*
X496588Y619392D01*
X496655Y619532D01*
X496724Y619670D01*
X496729Y619689D01*
X496737Y619707D01*
X496770Y619858D01*
X496806Y620009D01*
X496806Y620029D01*
X496810Y620047D01*
X496808Y620202D01*
X496809Y620358D01*
X496805Y620377D01*
X496805Y620396D01*
X496767Y620546D01*
X496733Y620698D01*
X496724Y620715D01*
X496720Y620734D01*
X496648Y620872D01*
X496581Y621011D01*
X496569Y621026D01*
X496560Y621044D01*
X496459Y621162D01*
X496362Y621283D01*
X496347Y621294D01*
X496334Y621309D01*
X496209Y621402D01*
X496087Y621497D01*
X496069Y621505D01*
X496054Y621516D01*
X495911Y621578D01*
X495770Y621643D01*
X495748Y621648D01*
X495734Y621654D01*
X495691Y621662D01*
X495533Y621700D01*
X495242Y621746D01*
X493607Y622278D01*
X492075Y623058D01*
X490684Y624069D01*
X489469Y625284D01*
X488458Y626675D01*
X487678Y628207D01*
X487146Y629842D01*
X487137Y629901D01*
X496824Y629901D01*
X496850Y629904D01*
X496876Y629902D01*
X497023Y629924D01*
X497170Y629941D01*
X497195Y629949D01*
X497221Y629953D01*
X497358Y630008D01*
X497498Y630058D01*
X497520Y630072D01*
X497545Y630082D01*
X497666Y630167D01*
X497791Y630247D01*
X497809Y630266D01*
X497831Y630281D01*
X497930Y630391D01*
X498033Y630498D01*
X498047Y630520D01*
X498064Y630540D01*
X498136Y630670D01*
X498212Y630797D01*
X498220Y630822D01*
X498233Y630845D01*
X498273Y630988D01*
X498318Y631129D01*
X498320Y631155D01*
X498327Y631180D01*
X498347Y631424D01*
X498347Y631853D01*
X498776Y631853D01*
X498802Y631856D01*
X498828Y631854D01*
X498975Y631876D01*
X499122Y631893D01*
X499147Y631902D01*
X499173Y631906D01*
X499311Y631960D01*
X499450Y632010D01*
X499472Y632025D01*
X499497Y632034D01*
X499618Y632119D01*
X499743Y632199D01*
X499761Y632218D01*
X499783Y632233D01*
X499882Y632343D01*
X499985Y632450D01*
X499999Y632473D01*
X500016Y632492D01*
X500088Y632622D01*
X500164Y632749D01*
X500172Y632774D01*
X500185Y632797D01*
X500225Y632940D01*
X500270Y633081D01*
X500272Y633107D01*
X500280Y633132D01*
X500299Y633376D01*
X500299Y643063D01*
X500358Y643054D01*
X501993Y642522D01*
X503525Y641742D01*
X504916Y640731D01*
X506131Y639516D01*
X507142Y638125D01*
X507922Y636593D01*
X508454Y634958D01*
X508500Y634667D01*
X508541Y634518D01*
X508579Y634367D01*
X508588Y634350D01*
X508593Y634332D01*
X508667Y634196D01*
X508739Y634058D01*
X508751Y634043D01*
X508761Y634026D01*
X508864Y633910D01*
X508965Y633792D01*
X508980Y633781D01*
X508993Y633766D01*
X509121Y633677D01*
X509245Y633585D01*
X509263Y633577D01*
X509279Y633566D01*
X509423Y633508D01*
X509565Y633447D01*
X509584Y633444D01*
X509602Y633436D01*
X509755Y633413D01*
X509908Y633385D01*
X509927Y633386D01*
X509946Y633383D01*
X510101Y633395D01*
X510256Y633403D01*
X510275Y633409D01*
X510294Y633410D01*
X510442Y633457D01*
X510591Y633500D01*
X510608Y633509D01*
X510626Y633515D01*
X510760Y633594D01*
X510895Y633670D01*
X510913Y633685D01*
X510926Y633693D01*
X510958Y633723D01*
X511081Y633828D01*
X512882Y635629D01*
X512911Y635648D01*
X512980Y635680D01*
X513057Y635742D01*
X513139Y635795D01*
X513192Y635850D01*
X513252Y635898D01*
X513313Y635975D01*
X513382Y636046D01*
X513421Y636111D01*
X513468Y636171D01*
X513536Y636304D01*
X513560Y636345D01*
X513566Y636363D01*
X513580Y636389D01*
X514371Y638300D01*
X517300Y641229D01*
X521128Y642815D01*
X525272Y642815D01*
X529100Y641229D01*
X532029Y638300D01*
X533615Y634472D01*
X533615Y630328D01*
X532029Y626500D01*
X529100Y623571D01*
X525272Y621985D01*
X521128Y621985D01*
X517300Y623571D01*
X514451Y626421D01*
X514430Y626437D01*
X514413Y626457D01*
X514294Y626545D01*
X514178Y626637D01*
X514154Y626648D01*
X514133Y626664D01*
X513997Y626723D01*
X513863Y626786D01*
X513837Y626792D01*
X513813Y626802D01*
X513667Y626828D01*
X513522Y626859D01*
X513496Y626859D01*
X513470Y626864D01*
X513321Y626856D01*
X513174Y626853D01*
X513148Y626847D01*
X513122Y626846D01*
X512979Y626805D01*
X512836Y626768D01*
X512812Y626756D01*
X512787Y626749D01*
X512657Y626677D01*
X512526Y626609D01*
X512506Y626592D01*
X512483Y626579D01*
X512297Y626421D01*
X491097Y605221D01*
X470464Y605221D01*
X470338Y605207D01*
X470212Y605200D01*
X470166Y605187D01*
X470118Y605181D01*
X469999Y605139D01*
X469877Y605104D01*
X469835Y605080D01*
X469789Y605064D01*
X469683Y604995D01*
X469573Y604934D01*
X469527Y604894D01*
X469497Y604875D01*
X469463Y604840D01*
X469387Y604775D01*
X397195Y532583D01*
X397116Y532484D01*
X397032Y532390D01*
X397008Y532348D01*
X396978Y532310D01*
X396924Y532196D01*
X396863Y532085D01*
X396850Y532039D01*
X396829Y531995D01*
X396803Y531872D01*
X396768Y531750D01*
X396763Y531689D01*
X396756Y531654D01*
X396757Y531606D01*
X396749Y531506D01*
X396749Y471794D01*
X396763Y471669D01*
X396770Y471542D01*
X396783Y471495D01*
X396789Y471448D01*
X396831Y471329D01*
X396866Y471207D01*
X396890Y471165D01*
X396906Y471119D01*
X396975Y471013D01*
X397036Y470903D01*
X397076Y470857D01*
X397095Y470827D01*
X397130Y470793D01*
X397195Y470717D01*
X398338Y469574D01*
X398417Y469511D01*
X398489Y469441D01*
X398553Y469403D01*
X398611Y469357D01*
X398702Y469314D01*
X398788Y469263D01*
X398859Y469240D01*
X398926Y469208D01*
X399024Y469187D01*
X399120Y469156D01*
X399194Y469150D01*
X399267Y469135D01*
X399367Y469136D01*
X399467Y469128D01*
X399541Y469139D01*
X399615Y469141D01*
X399712Y469165D01*
X399812Y469180D01*
X399881Y469208D01*
X399953Y469226D01*
X400042Y469272D01*
X400136Y469309D01*
X400197Y469351D01*
X400263Y469385D01*
X400339Y469450D01*
X400422Y469508D01*
X400472Y469563D01*
X400528Y469611D01*
X400588Y469692D01*
X400655Y469767D01*
X400691Y469832D01*
X400736Y469891D01*
X400775Y469984D01*
X400824Y470072D01*
X400844Y470143D01*
X400874Y470211D01*
X400891Y470310D01*
X400919Y470407D01*
X400927Y470507D01*
X400935Y470554D01*
X400933Y470590D01*
X400938Y470651D01*
X400938Y470986D01*
X401770Y472994D01*
X403306Y474530D01*
X404061Y474843D01*
X404148Y474892D01*
X404240Y474932D01*
X404300Y474976D01*
X404365Y475012D01*
X404440Y475080D01*
X404520Y475139D01*
X404568Y475196D01*
X404623Y475246D01*
X404680Y475329D01*
X404745Y475405D01*
X404779Y475472D01*
X404822Y475533D01*
X404858Y475626D01*
X404904Y475716D01*
X404922Y475788D01*
X404949Y475857D01*
X404964Y475956D01*
X404988Y476054D01*
X404989Y476128D01*
X405000Y476202D01*
X404992Y476302D01*
X404993Y476402D01*
X404977Y476475D01*
X404971Y476549D01*
X404940Y476645D01*
X404919Y476743D01*
X404887Y476810D01*
X404864Y476881D01*
X404812Y476967D01*
X404769Y477058D01*
X404723Y477116D01*
X404684Y477179D01*
X404615Y477251D01*
X404552Y477330D01*
X404493Y477376D01*
X404442Y477429D01*
X404357Y477484D01*
X404278Y477546D01*
X404189Y477592D01*
X404148Y477618D01*
X404115Y477630D01*
X404061Y477657D01*
X403306Y477970D01*
X401770Y479506D01*
X400938Y481514D01*
X400938Y483686D01*
X401770Y485694D01*
X403306Y487230D01*
X405314Y488062D01*
X407486Y488062D01*
X409494Y487230D01*
X410629Y486095D01*
X410728Y486016D01*
X410822Y485932D01*
X410864Y485908D01*
X410902Y485878D01*
X411016Y485824D01*
X411127Y485763D01*
X411174Y485750D01*
X411217Y485729D01*
X411341Y485703D01*
X411462Y485668D01*
X411523Y485663D01*
X411558Y485656D01*
X411606Y485657D01*
X411706Y485649D01*
X439194Y485649D01*
X439319Y485663D01*
X439446Y485670D01*
X439492Y485683D01*
X439540Y485689D01*
X439659Y485731D01*
X439780Y485766D01*
X439823Y485790D01*
X439868Y485806D01*
X439974Y485875D01*
X440085Y485936D01*
X440131Y485976D01*
X440161Y485995D01*
X440194Y486030D01*
X440271Y486095D01*
X441406Y487230D01*
X443414Y488062D01*
X445586Y488062D01*
X447594Y487230D01*
X449130Y485694D01*
X449962Y483686D01*
X449962Y481514D01*
X449130Y479506D01*
X447594Y477970D01*
X445586Y477138D01*
X443414Y477138D01*
X441406Y477970D01*
X440271Y479105D01*
X440172Y479184D01*
X440078Y479268D01*
X440036Y479292D01*
X439998Y479322D01*
X439884Y479376D01*
X439773Y479437D01*
X439726Y479450D01*
X439683Y479471D01*
X439559Y479497D01*
X439438Y479532D01*
X439377Y479537D01*
X439342Y479544D01*
X439294Y479543D01*
X439194Y479551D01*
X411706Y479551D01*
X411581Y479537D01*
X411454Y479530D01*
X411408Y479517D01*
X411360Y479511D01*
X411241Y479469D01*
X411120Y479434D01*
X411077Y479410D01*
X411032Y479394D01*
X410926Y479325D01*
X410815Y479264D01*
X410769Y479224D01*
X410739Y479205D01*
X410706Y479170D01*
X410629Y479105D01*
X409494Y477970D01*
X408739Y477657D01*
X408652Y477608D01*
X408560Y477569D01*
X408500Y477524D01*
X408435Y477488D01*
X408361Y477421D01*
X408280Y477361D01*
X408232Y477304D01*
X408177Y477254D01*
X408120Y477171D01*
X408055Y477095D01*
X408021Y477028D01*
X407979Y476967D01*
X407942Y476874D01*
X407896Y476784D01*
X407878Y476712D01*
X407851Y476643D01*
X407836Y476544D01*
X407812Y476446D01*
X407811Y476372D01*
X407800Y476298D01*
X407808Y476198D01*
X407807Y476098D01*
X407823Y476025D01*
X407829Y475951D01*
X407860Y475855D01*
X407881Y475757D01*
X407913Y475690D01*
X407936Y475619D01*
X407988Y475533D01*
X408031Y475442D01*
X408077Y475384D01*
X408116Y475321D01*
X408185Y475249D01*
X408248Y475170D01*
X408307Y475124D01*
X408358Y475071D01*
X408443Y475016D01*
X408522Y474954D01*
X408611Y474909D01*
X408652Y474882D01*
X408685Y474870D01*
X408739Y474843D01*
X409494Y474530D01*
X410629Y473395D01*
X410728Y473316D01*
X410822Y473232D01*
X410864Y473208D01*
X410902Y473178D01*
X411016Y473124D01*
X411127Y473063D01*
X411174Y473050D01*
X411217Y473029D01*
X411341Y473003D01*
X411462Y472968D01*
X411523Y472963D01*
X411558Y472956D01*
X411606Y472957D01*
X411706Y472949D01*
X426494Y472949D01*
X426619Y472963D01*
X426746Y472970D01*
X426792Y472983D01*
X426840Y472989D01*
X426959Y473031D01*
X427080Y473066D01*
X427123Y473090D01*
X427168Y473106D01*
X427274Y473175D01*
X427385Y473236D01*
X427431Y473276D01*
X427461Y473295D01*
X427494Y473330D01*
X427571Y473395D01*
X428706Y474530D01*
X430714Y475362D01*
X432886Y475362D01*
X434894Y474530D01*
X436430Y472994D01*
X437262Y470986D01*
X437262Y468814D01*
X436430Y466806D01*
X434894Y465270D01*
X432886Y464438D01*
X430714Y464438D01*
X430530Y464514D01*
X428706Y465270D01*
X427571Y466405D01*
X427472Y466484D01*
X427378Y466568D01*
X427336Y466592D01*
X427298Y466622D01*
X427184Y466676D01*
X427073Y466737D01*
X427026Y466750D01*
X426983Y466771D01*
X426859Y466797D01*
X426738Y466832D01*
X426677Y466837D01*
X426642Y466844D01*
X426594Y466843D01*
X426494Y466851D01*
X411706Y466851D01*
X411581Y466837D01*
X411454Y466830D01*
X411408Y466817D01*
X411360Y466811D01*
X411241Y466769D01*
X411120Y466734D01*
X411077Y466710D01*
X411032Y466694D01*
X410926Y466625D01*
X410815Y466564D01*
X410769Y466524D01*
X410739Y466505D01*
X410706Y466470D01*
X410629Y466405D01*
X409494Y465270D01*
X407486Y464438D01*
X407151Y464438D01*
X407051Y464427D01*
X406951Y464425D01*
X406878Y464407D01*
X406805Y464398D01*
X406710Y464365D01*
X406613Y464340D01*
X406546Y464306D01*
X406476Y464281D01*
X406392Y464226D01*
X406303Y464180D01*
X406246Y464132D01*
X406184Y464092D01*
X406114Y464020D01*
X406037Y463955D01*
X405993Y463895D01*
X405941Y463841D01*
X405890Y463755D01*
X405830Y463674D01*
X405801Y463606D01*
X405763Y463542D01*
X405732Y463446D01*
X405692Y463354D01*
X405679Y463281D01*
X405656Y463210D01*
X405648Y463110D01*
X405631Y463011D01*
X405634Y462937D01*
X405628Y462863D01*
X405643Y462763D01*
X405648Y462663D01*
X405669Y462592D01*
X405680Y462518D01*
X405717Y462425D01*
X405745Y462328D01*
X405781Y462263D01*
X405809Y462194D01*
X405866Y462112D01*
X405915Y462024D01*
X405980Y461948D01*
X406008Y461908D01*
X406034Y461884D01*
X406074Y461838D01*
X411038Y456874D01*
X411116Y456811D01*
X411189Y456741D01*
X411253Y456703D01*
X411311Y456657D01*
X411402Y456614D01*
X411488Y456563D01*
X411559Y456540D01*
X411626Y456508D01*
X411724Y456487D01*
X411820Y456456D01*
X411894Y456450D01*
X411967Y456435D01*
X412067Y456436D01*
X412167Y456428D01*
X412241Y456439D01*
X412315Y456441D01*
X412412Y456465D01*
X412512Y456480D01*
X412581Y456508D01*
X412653Y456526D01*
X412743Y456572D01*
X412836Y456609D01*
X412897Y456651D01*
X412963Y456685D01*
X413040Y456751D01*
X413122Y456808D01*
X413172Y456863D01*
X413228Y456911D01*
X413288Y456992D01*
X413355Y457067D01*
X413391Y457132D01*
X413436Y457191D01*
X413475Y457284D01*
X413524Y457372D01*
X413544Y457443D01*
X413574Y457511D01*
X413591Y457610D01*
X413619Y457707D01*
X413627Y457807D01*
X413635Y457854D01*
X413633Y457890D01*
X413638Y457951D01*
X413638Y458286D01*
X414470Y460294D01*
X416006Y461830D01*
X418014Y462662D01*
X420186Y462662D01*
X422194Y461830D01*
X422821Y461203D01*
X422920Y461124D01*
X423014Y461040D01*
X423056Y461016D01*
X423094Y460986D01*
X423208Y460932D01*
X423319Y460871D01*
X423366Y460858D01*
X423409Y460837D01*
X423533Y460811D01*
X423654Y460776D01*
X423715Y460771D01*
X423750Y460764D01*
X423798Y460765D01*
X423898Y460757D01*
X439702Y460757D01*
X439827Y460771D01*
X439954Y460778D01*
X440000Y460791D01*
X440048Y460797D01*
X440167Y460839D01*
X440288Y460874D01*
X440331Y460898D01*
X440376Y460914D01*
X440482Y460983D01*
X440593Y461044D01*
X440639Y461084D01*
X440669Y461103D01*
X440702Y461138D01*
X440779Y461203D01*
X441406Y461830D01*
X443414Y462662D01*
X445586Y462662D01*
X447594Y461830D01*
X449130Y460294D01*
X449962Y458286D01*
X449962Y456114D01*
X449130Y454106D01*
X447594Y452570D01*
X445586Y451738D01*
X443414Y451738D01*
X441406Y452570D01*
X440779Y453197D01*
X440680Y453276D01*
X440586Y453360D01*
X440544Y453384D01*
X440506Y453414D01*
X440392Y453468D01*
X440281Y453529D01*
X440234Y453542D01*
X440191Y453563D01*
X440067Y453589D01*
X439946Y453624D01*
X439885Y453629D01*
X439850Y453636D01*
X439802Y453635D01*
X439702Y453643D01*
X423898Y453643D01*
X423773Y453629D01*
X423646Y453622D01*
X423600Y453609D01*
X423552Y453603D01*
X423433Y453561D01*
X423312Y453526D01*
X423269Y453502D01*
X423224Y453486D01*
X423118Y453417D01*
X423007Y453356D01*
X422961Y453316D01*
X422931Y453297D01*
X422898Y453262D01*
X422821Y453197D01*
X422194Y452570D01*
X420186Y451738D01*
X419851Y451738D01*
X419751Y451727D01*
X419651Y451725D01*
X419578Y451707D01*
X419505Y451698D01*
X419410Y451665D01*
X419313Y451640D01*
X419246Y451606D01*
X419176Y451581D01*
X419092Y451526D01*
X419003Y451480D01*
X418946Y451432D01*
X418884Y451392D01*
X418814Y451320D01*
X418737Y451255D01*
X418693Y451195D01*
X418641Y451141D01*
X418590Y451055D01*
X418530Y450974D01*
X418501Y450906D01*
X418463Y450842D01*
X418432Y450746D01*
X418392Y450654D01*
X418379Y450581D01*
X418356Y450510D01*
X418348Y450410D01*
X418331Y450311D01*
X418334Y450237D01*
X418328Y450163D01*
X418343Y450063D01*
X418348Y449963D01*
X418369Y449892D01*
X418380Y449818D01*
X418417Y449725D01*
X418445Y449628D01*
X418481Y449563D01*
X418509Y449494D01*
X418566Y449412D01*
X418615Y449324D01*
X418680Y449248D01*
X418708Y449208D01*
X418734Y449184D01*
X418774Y449138D01*
X423738Y444174D01*
X423816Y444111D01*
X423889Y444041D01*
X423953Y444003D01*
X424011Y443957D01*
X424102Y443914D01*
X424188Y443863D01*
X424259Y443840D01*
X424326Y443808D01*
X424424Y443787D01*
X424520Y443756D01*
X424594Y443750D01*
X424667Y443735D01*
X424767Y443736D01*
X424867Y443728D01*
X424941Y443739D01*
X425015Y443741D01*
X425112Y443765D01*
X425212Y443780D01*
X425281Y443808D01*
X425353Y443826D01*
X425443Y443872D01*
X425536Y443909D01*
X425597Y443951D01*
X425663Y443985D01*
X425740Y444051D01*
X425822Y444108D01*
X425872Y444163D01*
X425928Y444211D01*
X425988Y444292D01*
X426055Y444367D01*
X426091Y444432D01*
X426136Y444491D01*
X426175Y444584D01*
X426224Y444672D01*
X426244Y444743D01*
X426274Y444811D01*
X426291Y444910D01*
X426319Y445007D01*
X426327Y445107D01*
X426335Y445154D01*
X426333Y445190D01*
X426338Y445251D01*
X426338Y445586D01*
X427170Y447594D01*
X428706Y449130D01*
X430714Y449962D01*
X432886Y449962D01*
X434894Y449130D01*
X436029Y447995D01*
X436128Y447916D01*
X436222Y447832D01*
X436264Y447808D01*
X436302Y447778D01*
X436416Y447724D01*
X436527Y447663D01*
X436574Y447650D01*
X436617Y447629D01*
X436741Y447603D01*
X436862Y447568D01*
X436923Y447563D01*
X436958Y447556D01*
X437006Y447557D01*
X437106Y447549D01*
X455306Y447549D01*
X455432Y447563D01*
X455558Y447570D01*
X455604Y447583D01*
X455652Y447589D01*
X455771Y447631D01*
X455893Y447666D01*
X455935Y447690D01*
X455981Y447706D01*
X456087Y447775D01*
X456197Y447836D01*
X456243Y447876D01*
X456273Y447895D01*
X456307Y447930D01*
X456383Y447995D01*
X463992Y455604D01*
X464071Y455703D01*
X464155Y455797D01*
X464179Y455839D01*
X464209Y455877D01*
X464263Y455991D01*
X464324Y456102D01*
X464337Y456148D01*
X464358Y456192D01*
X464384Y456315D01*
X464419Y456437D01*
X464424Y456498D01*
X464431Y456533D01*
X464430Y456581D01*
X464438Y456681D01*
X464438Y458286D01*
X465270Y460294D01*
X466806Y461830D01*
X466905Y461871D01*
X467015Y461932D01*
X467128Y461986D01*
X467167Y462017D01*
X467210Y462041D01*
X467303Y462125D01*
X467401Y462203D01*
X467432Y462242D01*
X467468Y462275D01*
X467540Y462378D01*
X467617Y462476D01*
X467638Y462521D01*
X467666Y462561D01*
X467712Y462678D01*
X467766Y462792D01*
X467776Y462840D01*
X467794Y462886D01*
X467813Y463010D01*
X467839Y463132D01*
X467838Y463182D01*
X467845Y463230D01*
X467835Y463355D01*
X467832Y463481D01*
X467820Y463529D01*
X467816Y463578D01*
X467778Y463697D01*
X467747Y463819D01*
X467724Y463862D01*
X467709Y463909D01*
X467644Y464017D01*
X467587Y464128D01*
X467555Y464166D01*
X467529Y464208D01*
X467442Y464298D01*
X467361Y464393D01*
X467312Y464432D01*
X467287Y464458D01*
X467246Y464484D01*
X467169Y464545D01*
X466094Y465263D01*
X465263Y466094D01*
X464610Y467072D01*
X464160Y468159D01*
X464116Y468377D01*
X469900Y468377D01*
X475684Y468377D01*
X475640Y468159D01*
X475190Y467072D01*
X474537Y466094D01*
X473706Y465263D01*
X472631Y464545D01*
X472536Y464464D01*
X472435Y464389D01*
X472403Y464352D01*
X472365Y464320D01*
X472291Y464219D01*
X472210Y464123D01*
X472187Y464079D01*
X472158Y464040D01*
X472108Y463925D01*
X472051Y463813D01*
X472039Y463765D01*
X472019Y463720D01*
X471997Y463596D01*
X471967Y463475D01*
X471966Y463425D01*
X471957Y463377D01*
X471964Y463252D01*
X471962Y463126D01*
X471972Y463078D01*
X471975Y463029D01*
X472009Y462908D01*
X472036Y462786D01*
X472057Y462741D01*
X472071Y462694D01*
X472132Y462584D01*
X472186Y462471D01*
X472217Y462432D01*
X472241Y462389D01*
X472325Y462297D01*
X472403Y462199D01*
X472442Y462168D01*
X472475Y462132D01*
X472579Y462060D01*
X472677Y461983D01*
X472732Y461954D01*
X472762Y461934D01*
X472807Y461916D01*
X472895Y461871D01*
X472994Y461830D01*
X474530Y460294D01*
X475362Y458286D01*
X475362Y456114D01*
X474530Y454106D01*
X472994Y452570D01*
X472239Y452257D01*
X472152Y452208D01*
X472060Y452169D01*
X472000Y452124D01*
X471935Y452088D01*
X471861Y452021D01*
X471780Y451961D01*
X471732Y451904D01*
X471677Y451854D01*
X471620Y451771D01*
X471555Y451695D01*
X471521Y451628D01*
X471479Y451567D01*
X471442Y451474D01*
X471396Y451384D01*
X471378Y451312D01*
X471351Y451243D01*
X471336Y451144D01*
X471312Y451046D01*
X471311Y450972D01*
X471300Y450898D01*
X471308Y450798D01*
X471307Y450698D01*
X471323Y450625D01*
X471329Y450551D01*
X471360Y450455D01*
X471381Y450357D01*
X471413Y450290D01*
X471436Y450219D01*
X471488Y450133D01*
X471531Y450042D01*
X471577Y449984D01*
X471616Y449921D01*
X471685Y449849D01*
X471748Y449770D01*
X471807Y449724D01*
X471858Y449671D01*
X471943Y449616D01*
X472022Y449554D01*
X472111Y449509D01*
X472152Y449482D01*
X472185Y449470D01*
X472239Y449443D01*
X472994Y449130D01*
X474530Y447594D01*
X475362Y445586D01*
X475362Y443414D01*
X474530Y441406D01*
X472994Y439870D01*
X470986Y439038D01*
X469381Y439038D01*
X469255Y439024D01*
X469129Y439017D01*
X469083Y439004D01*
X469035Y438998D01*
X468916Y438956D01*
X468794Y438921D01*
X468752Y438897D01*
X468706Y438881D01*
X468600Y438812D01*
X468490Y438751D01*
X468444Y438711D01*
X468414Y438692D01*
X468380Y438657D01*
X468304Y438592D01*
X458463Y428751D01*
X449806Y428751D01*
X449681Y428737D01*
X449554Y428730D01*
X449508Y428717D01*
X449460Y428711D01*
X449341Y428669D01*
X449220Y428634D01*
X449177Y428610D01*
X449132Y428594D01*
X449026Y428525D01*
X448915Y428464D01*
X448869Y428424D01*
X448839Y428405D01*
X448806Y428370D01*
X448729Y428305D01*
X447594Y427170D01*
X446839Y426857D01*
X446752Y426808D01*
X446660Y426769D01*
X446600Y426724D01*
X446535Y426688D01*
X446461Y426621D01*
X446380Y426561D01*
X446332Y426504D01*
X446277Y426454D01*
X446220Y426371D01*
X446155Y426295D01*
X446121Y426228D01*
X446079Y426167D01*
X446042Y426074D01*
X445996Y425984D01*
X445978Y425912D01*
X445951Y425843D01*
X445936Y425744D01*
X445912Y425646D01*
X445911Y425572D01*
X445900Y425498D01*
X445908Y425398D01*
X445907Y425298D01*
X445923Y425225D01*
X445929Y425151D01*
X445960Y425055D01*
X445981Y424957D01*
X446013Y424890D01*
X446036Y424819D01*
X446088Y424733D01*
X446131Y424642D01*
X446177Y424584D01*
X446216Y424521D01*
X446285Y424449D01*
X446348Y424370D01*
X446407Y424324D01*
X446458Y424271D01*
X446543Y424216D01*
X446622Y424154D01*
X446711Y424109D01*
X446752Y424082D01*
X446785Y424070D01*
X446839Y424043D01*
X447594Y423730D01*
X449130Y422194D01*
X449962Y420186D01*
X449962Y418014D01*
X449130Y416006D01*
X447594Y414470D01*
X446839Y414157D01*
X446752Y414108D01*
X446660Y414068D01*
X446600Y414024D01*
X446535Y413988D01*
X446460Y413920D01*
X446380Y413861D01*
X446332Y413804D01*
X446277Y413754D01*
X446220Y413671D01*
X446155Y413595D01*
X446121Y413528D01*
X446078Y413467D01*
X446042Y413374D01*
X445996Y413284D01*
X445978Y413212D01*
X445951Y413143D01*
X445936Y413044D01*
X445912Y412946D01*
X445911Y412872D01*
X445900Y412798D01*
X445908Y412698D01*
X445907Y412598D01*
X445923Y412525D01*
X445929Y412451D01*
X445960Y412355D01*
X445981Y412257D01*
X446013Y412190D01*
X446036Y412119D01*
X446088Y412033D01*
X446131Y411942D01*
X446177Y411884D01*
X446216Y411821D01*
X446285Y411749D01*
X446348Y411670D01*
X446407Y411624D01*
X446458Y411571D01*
X446543Y411516D01*
X446622Y411454D01*
X446711Y411408D01*
X446752Y411382D01*
X446785Y411370D01*
X446839Y411343D01*
X447594Y411030D01*
X449130Y409494D01*
X449962Y407486D01*
X449962Y405314D01*
X449130Y403306D01*
X447594Y401770D01*
X445586Y400938D01*
X443414Y400938D01*
G37*
%LPD*%
%LPC*%
G36*
X263123Y524763D02*
X263123Y524763D01*
X258489Y529397D01*
X258390Y529476D01*
X258296Y529560D01*
X258254Y529584D01*
X258216Y529614D01*
X258102Y529668D01*
X257991Y529729D01*
X257944Y529742D01*
X257901Y529763D01*
X257777Y529789D01*
X257655Y529824D01*
X257595Y529829D01*
X257560Y529836D01*
X257512Y529835D01*
X257412Y529843D01*
X241495Y529843D01*
X199643Y571695D01*
X199643Y636473D01*
X223765Y660595D01*
X550835Y660595D01*
X553365Y658065D01*
X568866Y642564D01*
X568926Y642517D01*
X568979Y642462D01*
X569062Y642408D01*
X569139Y642347D01*
X569208Y642315D01*
X569272Y642273D01*
X569365Y642241D01*
X569454Y642198D01*
X569529Y642182D01*
X569601Y642157D01*
X569699Y642146D01*
X569795Y642125D01*
X569871Y642126D01*
X569947Y642118D01*
X570045Y642129D01*
X570143Y642131D01*
X570217Y642150D01*
X570293Y642159D01*
X570435Y642204D01*
X570481Y642216D01*
X570498Y642225D01*
X570526Y642234D01*
X571928Y642815D01*
X576072Y642815D01*
X579900Y641229D01*
X582829Y638300D01*
X584415Y634472D01*
X584415Y630328D01*
X582829Y626500D01*
X579900Y623571D01*
X576072Y621985D01*
X571928Y621985D01*
X568100Y623571D01*
X565171Y626500D01*
X563585Y630328D01*
X563585Y634472D01*
X564166Y635874D01*
X564187Y635948D01*
X564217Y636018D01*
X564235Y636114D01*
X564262Y636209D01*
X564266Y636285D01*
X564279Y636361D01*
X564274Y636459D01*
X564279Y636557D01*
X564265Y636632D01*
X564261Y636709D01*
X564234Y636803D01*
X564216Y636900D01*
X564186Y636970D01*
X564165Y637044D01*
X564117Y637130D01*
X564077Y637220D01*
X564032Y637281D01*
X563994Y637348D01*
X563898Y637462D01*
X563870Y637499D01*
X563855Y637512D01*
X563836Y637534D01*
X548335Y653035D01*
X548236Y653114D01*
X548142Y653198D01*
X548100Y653222D01*
X548062Y653252D01*
X547948Y653306D01*
X547837Y653367D01*
X547790Y653380D01*
X547747Y653401D01*
X547623Y653427D01*
X547502Y653462D01*
X547441Y653467D01*
X547406Y653474D01*
X547358Y653473D01*
X547258Y653481D01*
X227342Y653481D01*
X227217Y653467D01*
X227090Y653460D01*
X227044Y653447D01*
X226996Y653441D01*
X226877Y653399D01*
X226756Y653364D01*
X226713Y653340D01*
X226668Y653324D01*
X226562Y653255D01*
X226451Y653194D01*
X226405Y653154D01*
X226375Y653135D01*
X226341Y653100D01*
X226265Y653035D01*
X218645Y645415D01*
X218583Y645337D01*
X218513Y645264D01*
X218475Y645200D01*
X218428Y645142D01*
X218386Y645051D01*
X218334Y644965D01*
X218311Y644894D01*
X218280Y644827D01*
X218258Y644729D01*
X218228Y644633D01*
X218222Y644559D01*
X218206Y644486D01*
X218208Y644386D01*
X218200Y644286D01*
X218211Y644212D01*
X218212Y644138D01*
X218237Y644041D01*
X218251Y643941D01*
X218279Y643872D01*
X218297Y643800D01*
X218343Y643710D01*
X218380Y643617D01*
X218423Y643556D01*
X218457Y643490D01*
X218522Y643413D01*
X218579Y643331D01*
X218634Y643281D01*
X218683Y643225D01*
X218763Y643165D01*
X218838Y643098D01*
X218903Y643062D01*
X218963Y643017D01*
X219055Y642978D01*
X219143Y642929D01*
X219215Y642909D01*
X219283Y642879D01*
X219382Y642862D01*
X219478Y642834D01*
X219578Y642826D01*
X219626Y642818D01*
X219662Y642820D01*
X219722Y642815D01*
X220472Y642815D01*
X224300Y641229D01*
X227229Y638300D01*
X228815Y634472D01*
X228815Y630328D01*
X227229Y626500D01*
X224300Y623571D01*
X220472Y621985D01*
X216328Y621985D01*
X212500Y623571D01*
X209357Y626714D01*
X209279Y626777D01*
X209206Y626846D01*
X209142Y626885D01*
X209084Y626931D01*
X208993Y626974D01*
X208907Y627025D01*
X208836Y627048D01*
X208769Y627080D01*
X208671Y627101D01*
X208575Y627132D01*
X208501Y627138D01*
X208428Y627153D01*
X208328Y627151D01*
X208228Y627160D01*
X208154Y627148D01*
X208080Y627147D01*
X207983Y627123D01*
X207883Y627108D01*
X207814Y627080D01*
X207742Y627062D01*
X207653Y627016D01*
X207559Y626979D01*
X207498Y626937D01*
X207432Y626903D01*
X207356Y626837D01*
X207273Y626780D01*
X207223Y626725D01*
X207167Y626677D01*
X207107Y626596D01*
X207040Y626521D01*
X207004Y626456D01*
X206959Y626396D01*
X206920Y626304D01*
X206871Y626216D01*
X206851Y626145D01*
X206821Y626076D01*
X206804Y625978D01*
X206776Y625881D01*
X206768Y625781D01*
X206760Y625733D01*
X206762Y625698D01*
X206757Y625637D01*
X206757Y575273D01*
X206771Y575147D01*
X206778Y575021D01*
X206791Y574974D01*
X206797Y574926D01*
X206839Y574807D01*
X206874Y574686D01*
X206898Y574644D01*
X206914Y574598D01*
X206983Y574492D01*
X207044Y574382D01*
X207084Y574336D01*
X207103Y574306D01*
X207138Y574272D01*
X207203Y574196D01*
X243996Y537403D01*
X244095Y537324D01*
X244188Y537240D01*
X244231Y537216D01*
X244269Y537186D01*
X244383Y537132D01*
X244493Y537071D01*
X244540Y537058D01*
X244584Y537037D01*
X244707Y537011D01*
X244829Y536976D01*
X244890Y536971D01*
X244924Y536964D01*
X244972Y536965D01*
X245073Y536957D01*
X257412Y536957D01*
X257537Y536971D01*
X257663Y536978D01*
X257710Y536991D01*
X257758Y536997D01*
X257877Y537039D01*
X257998Y537074D01*
X258041Y537098D01*
X258086Y537114D01*
X258192Y537183D01*
X258302Y537244D01*
X258349Y537284D01*
X258379Y537303D01*
X258412Y537338D01*
X258489Y537403D01*
X263123Y542037D01*
X270277Y542037D01*
X275337Y536977D01*
X275337Y529823D01*
X270277Y524763D01*
X263123Y524763D01*
G37*
%LPD*%
%LPC*%
G36*
X659558Y264667D02*
X659558Y264667D01*
X658367Y265858D01*
X658367Y318342D01*
X659558Y319533D01*
X712042Y319533D01*
X713233Y318342D01*
X713233Y265858D01*
X712042Y264667D01*
X659558Y264667D01*
G37*
%LPD*%
%LPC*%
G36*
X519614Y413638D02*
X519614Y413638D01*
X517606Y414470D01*
X516070Y416006D01*
X515238Y418014D01*
X515238Y420186D01*
X516070Y422194D01*
X517606Y423730D01*
X519614Y424562D01*
X521786Y424562D01*
X523794Y423730D01*
X524421Y423103D01*
X524520Y423024D01*
X524614Y422940D01*
X524656Y422916D01*
X524694Y422886D01*
X524808Y422832D01*
X524919Y422771D01*
X524966Y422758D01*
X525009Y422737D01*
X525133Y422711D01*
X525254Y422676D01*
X525315Y422671D01*
X525350Y422664D01*
X525398Y422665D01*
X525498Y422657D01*
X582096Y422657D01*
X582221Y422671D01*
X582348Y422678D01*
X582394Y422691D01*
X582442Y422697D01*
X582561Y422739D01*
X582682Y422774D01*
X582725Y422798D01*
X582770Y422814D01*
X582876Y422883D01*
X582987Y422944D01*
X583033Y422984D01*
X583063Y423003D01*
X583096Y423038D01*
X583173Y423103D01*
X629092Y469022D01*
X629171Y469121D01*
X629255Y469215D01*
X629279Y469257D01*
X629309Y469295D01*
X629363Y469409D01*
X629424Y469520D01*
X629437Y469567D01*
X629458Y469610D01*
X629484Y469734D01*
X629519Y469855D01*
X629524Y469916D01*
X629531Y469951D01*
X629530Y469999D01*
X629538Y470099D01*
X629538Y470986D01*
X630370Y472994D01*
X631906Y474530D01*
X633914Y475362D01*
X636086Y475362D01*
X638094Y474530D01*
X639630Y472994D01*
X640462Y470986D01*
X640462Y468814D01*
X639630Y466806D01*
X638094Y465270D01*
X636086Y464438D01*
X635199Y464438D01*
X635074Y464424D01*
X634947Y464417D01*
X634901Y464404D01*
X634853Y464398D01*
X634734Y464356D01*
X634613Y464321D01*
X634570Y464297D01*
X634525Y464281D01*
X634419Y464212D01*
X634308Y464151D01*
X634262Y464111D01*
X634232Y464092D01*
X634199Y464057D01*
X634122Y463992D01*
X585673Y415543D01*
X525498Y415543D01*
X525373Y415529D01*
X525246Y415522D01*
X525200Y415509D01*
X525152Y415503D01*
X525033Y415461D01*
X524912Y415426D01*
X524869Y415402D01*
X524824Y415386D01*
X524718Y415317D01*
X524607Y415256D01*
X524561Y415216D01*
X524531Y415197D01*
X524498Y415162D01*
X524421Y415097D01*
X523794Y414470D01*
X521786Y413638D01*
X519614Y413638D01*
G37*
%LPD*%
%LPC*%
G36*
X292519Y216661D02*
X292519Y216661D01*
X288131Y218479D01*
X284773Y221837D01*
X282955Y226225D01*
X282955Y230975D01*
X284773Y235363D01*
X288131Y238721D01*
X292519Y240539D01*
X317081Y240539D01*
X321469Y238721D01*
X324827Y235363D01*
X326645Y230975D01*
X326645Y226225D01*
X324827Y221837D01*
X321469Y218479D01*
X317081Y216661D01*
X292519Y216661D01*
G37*
%LPD*%
%LPC*%
G36*
X394119Y216661D02*
X394119Y216661D01*
X389731Y218479D01*
X386373Y221837D01*
X384555Y226225D01*
X384555Y230975D01*
X386373Y235363D01*
X389731Y238721D01*
X394119Y240539D01*
X418681Y240539D01*
X423069Y238721D01*
X426427Y235363D01*
X428245Y230975D01*
X428245Y226225D01*
X426427Y221837D01*
X423069Y218479D01*
X418681Y216661D01*
X394119Y216661D01*
G37*
%LPD*%
%LPC*%
G36*
X394119Y267461D02*
X394119Y267461D01*
X389731Y269279D01*
X386373Y272637D01*
X384555Y277025D01*
X384555Y281775D01*
X386373Y286163D01*
X389731Y289521D01*
X394119Y291339D01*
X418681Y291339D01*
X423069Y289521D01*
X426427Y286163D01*
X428245Y281775D01*
X428245Y277025D01*
X426427Y272637D01*
X423069Y269279D01*
X418681Y267461D01*
X394119Y267461D01*
G37*
%LPD*%
%LPC*%
G36*
X292519Y165861D02*
X292519Y165861D01*
X288131Y167679D01*
X284773Y171037D01*
X282955Y175425D01*
X282955Y180175D01*
X284773Y184563D01*
X288131Y187921D01*
X292519Y189739D01*
X317081Y189739D01*
X321469Y187921D01*
X324827Y184563D01*
X326645Y180175D01*
X326645Y175425D01*
X324827Y171037D01*
X321469Y167679D01*
X317081Y165861D01*
X292519Y165861D01*
G37*
%LPD*%
%LPC*%
G36*
X352316Y161289D02*
X352316Y161289D01*
X346247Y163803D01*
X341603Y168447D01*
X339089Y174516D01*
X339089Y181084D01*
X341603Y187153D01*
X346247Y191797D01*
X352316Y194311D01*
X358884Y194311D01*
X364953Y191797D01*
X369597Y187153D01*
X372111Y181084D01*
X372111Y174516D01*
X369597Y168447D01*
X364953Y163803D01*
X358884Y161289D01*
X352316Y161289D01*
G37*
%LPD*%
%LPC*%
G36*
X651408Y617359D02*
X651408Y617359D01*
X645880Y619649D01*
X641649Y623880D01*
X639359Y629408D01*
X639359Y635392D01*
X641649Y640920D01*
X645880Y645151D01*
X651408Y647441D01*
X657392Y647441D01*
X662920Y645151D01*
X667151Y640920D01*
X669441Y635392D01*
X669441Y629408D01*
X667151Y623880D01*
X662920Y619649D01*
X657392Y617359D01*
X651408Y617359D01*
G37*
%LPD*%
%LPC*%
G36*
X688847Y193547D02*
X688847Y193547D01*
X688847Y218441D01*
X711535Y218441D01*
X712181Y218268D01*
X712760Y217933D01*
X713233Y217460D01*
X713568Y216881D01*
X713741Y216235D01*
X713741Y193547D01*
X688847Y193547D01*
G37*
%LPD*%
%LPC*%
G36*
X657859Y193547D02*
X657859Y193547D01*
X657859Y216235D01*
X658032Y216881D01*
X658367Y217460D01*
X658840Y217933D01*
X659419Y218268D01*
X660065Y218441D01*
X682753Y218441D01*
X682753Y193547D01*
X657859Y193547D01*
G37*
%LPD*%
%LPC*%
G36*
X688847Y162559D02*
X688847Y162559D01*
X688847Y187453D01*
X713741Y187453D01*
X713741Y164765D01*
X713568Y164119D01*
X713233Y163540D01*
X712760Y163067D01*
X712181Y162732D01*
X711535Y162559D01*
X688847Y162559D01*
G37*
%LPD*%
%LPC*%
G36*
X660065Y162559D02*
X660065Y162559D01*
X659419Y162732D01*
X658840Y163067D01*
X658367Y163540D01*
X658032Y164119D01*
X657859Y164765D01*
X657859Y187453D01*
X682753Y187453D01*
X682753Y162559D01*
X660065Y162559D01*
G37*
%LPD*%
%LPC*%
G36*
X519614Y223138D02*
X519614Y223138D01*
X517606Y223970D01*
X516070Y225506D01*
X515238Y227514D01*
X515238Y229686D01*
X516070Y231694D01*
X517606Y233230D01*
X519614Y234062D01*
X521786Y234062D01*
X523794Y233230D01*
X524421Y232603D01*
X524520Y232524D01*
X524614Y232440D01*
X524656Y232416D01*
X524694Y232386D01*
X524808Y232332D01*
X524919Y232271D01*
X524966Y232258D01*
X525009Y232237D01*
X525133Y232211D01*
X525254Y232176D01*
X525315Y232171D01*
X525350Y232164D01*
X525398Y232165D01*
X525498Y232157D01*
X554002Y232157D01*
X554127Y232171D01*
X554254Y232178D01*
X554300Y232191D01*
X554348Y232197D01*
X554467Y232239D01*
X554588Y232274D01*
X554631Y232298D01*
X554676Y232314D01*
X554782Y232383D01*
X554893Y232444D01*
X554939Y232484D01*
X554969Y232503D01*
X555002Y232538D01*
X555079Y232603D01*
X555706Y233230D01*
X557714Y234062D01*
X559886Y234062D01*
X561894Y233230D01*
X563430Y231694D01*
X564262Y229686D01*
X564262Y227514D01*
X563430Y225506D01*
X561894Y223970D01*
X559886Y223138D01*
X557714Y223138D01*
X555706Y223970D01*
X555079Y224597D01*
X554980Y224676D01*
X554886Y224760D01*
X554844Y224784D01*
X554806Y224814D01*
X554692Y224868D01*
X554581Y224929D01*
X554534Y224942D01*
X554491Y224963D01*
X554367Y224989D01*
X554246Y225024D01*
X554185Y225029D01*
X554150Y225036D01*
X554102Y225035D01*
X554002Y225043D01*
X525498Y225043D01*
X525373Y225029D01*
X525246Y225022D01*
X525200Y225009D01*
X525152Y225003D01*
X525033Y224961D01*
X524912Y224926D01*
X524869Y224902D01*
X524824Y224886D01*
X524718Y224817D01*
X524607Y224756D01*
X524561Y224716D01*
X524531Y224697D01*
X524498Y224662D01*
X524421Y224597D01*
X523794Y223970D01*
X521786Y223138D01*
X519614Y223138D01*
G37*
%LPD*%
%LPC*%
G36*
X292528Y621985D02*
X292528Y621985D01*
X288700Y623571D01*
X285771Y626500D01*
X284185Y630328D01*
X284185Y634472D01*
X285771Y638300D01*
X288700Y641229D01*
X292528Y642815D01*
X296672Y642815D01*
X300500Y641229D01*
X303429Y638300D01*
X305015Y634472D01*
X305015Y630328D01*
X303429Y626500D01*
X300500Y623571D01*
X296672Y621985D01*
X292528Y621985D01*
G37*
%LPD*%
%LPC*%
G36*
X267128Y621985D02*
X267128Y621985D01*
X263300Y623571D01*
X260371Y626500D01*
X258785Y630328D01*
X258785Y634472D01*
X260371Y638300D01*
X263300Y641229D01*
X267128Y642815D01*
X271272Y642815D01*
X275100Y641229D01*
X278029Y638300D01*
X279615Y634472D01*
X279615Y630328D01*
X278029Y626500D01*
X275100Y623571D01*
X271272Y621985D01*
X267128Y621985D01*
G37*
%LPD*%
%LPC*%
G36*
X368728Y621985D02*
X368728Y621985D01*
X364900Y623571D01*
X361971Y626500D01*
X360385Y630328D01*
X360385Y634472D01*
X361971Y638300D01*
X364900Y641229D01*
X368728Y642815D01*
X372872Y642815D01*
X376700Y641229D01*
X379629Y638300D01*
X381215Y634472D01*
X381215Y630328D01*
X379629Y626500D01*
X376700Y623571D01*
X372872Y621985D01*
X368728Y621985D01*
G37*
%LPD*%
%LPC*%
G36*
X546528Y621985D02*
X546528Y621985D01*
X542700Y623571D01*
X539771Y626500D01*
X538185Y630328D01*
X538185Y634472D01*
X539771Y638300D01*
X542700Y641229D01*
X546528Y642815D01*
X550672Y642815D01*
X554500Y641229D01*
X557429Y638300D01*
X559015Y634472D01*
X559015Y630328D01*
X557429Y626500D01*
X554500Y623571D01*
X550672Y621985D01*
X546528Y621985D01*
G37*
%LPD*%
%LPC*%
G36*
X394128Y621985D02*
X394128Y621985D01*
X390300Y623571D01*
X387371Y626500D01*
X385785Y630328D01*
X385785Y634472D01*
X387371Y638300D01*
X390300Y641229D01*
X394128Y642815D01*
X398272Y642815D01*
X402100Y641229D01*
X405029Y638300D01*
X406615Y634472D01*
X406615Y630328D01*
X405029Y626500D01*
X402100Y623571D01*
X398272Y621985D01*
X394128Y621985D01*
G37*
%LPD*%
%LPC*%
G36*
X419528Y621985D02*
X419528Y621985D01*
X415700Y623571D01*
X412771Y626500D01*
X411185Y630328D01*
X411185Y634472D01*
X412771Y638300D01*
X415700Y641229D01*
X419528Y642815D01*
X423672Y642815D01*
X427500Y641229D01*
X430429Y638300D01*
X432015Y634472D01*
X432015Y630328D01*
X430429Y626500D01*
X427500Y623571D01*
X423672Y621985D01*
X419528Y621985D01*
G37*
%LPD*%
%LPC*%
G36*
X444928Y621985D02*
X444928Y621985D01*
X441100Y623571D01*
X438171Y626500D01*
X436585Y630328D01*
X436585Y634472D01*
X438171Y638300D01*
X441100Y641229D01*
X444928Y642815D01*
X449072Y642815D01*
X452900Y641229D01*
X455829Y638300D01*
X457415Y634472D01*
X457415Y630328D01*
X455829Y626500D01*
X452900Y623571D01*
X449072Y621985D01*
X444928Y621985D01*
G37*
%LPD*%
%LPC*%
G36*
X241728Y621985D02*
X241728Y621985D01*
X237900Y623571D01*
X234971Y626500D01*
X233385Y630328D01*
X233385Y634472D01*
X234971Y638300D01*
X237900Y641229D01*
X241728Y642815D01*
X245872Y642815D01*
X249700Y641229D01*
X252629Y638300D01*
X254215Y634472D01*
X254215Y630328D01*
X252629Y626500D01*
X249700Y623571D01*
X245872Y621985D01*
X241728Y621985D01*
G37*
%LPD*%
%LPC*%
G36*
X343328Y621985D02*
X343328Y621985D01*
X339500Y623571D01*
X336571Y626500D01*
X334985Y630328D01*
X334985Y634472D01*
X336571Y638300D01*
X339500Y641229D01*
X343328Y642815D01*
X347472Y642815D01*
X351300Y641229D01*
X354229Y638300D01*
X355815Y634472D01*
X355815Y630328D01*
X354229Y626500D01*
X351300Y623571D01*
X347472Y621985D01*
X343328Y621985D01*
G37*
%LPD*%
%LPC*%
G36*
X317928Y621985D02*
X317928Y621985D01*
X314100Y623571D01*
X311171Y626500D01*
X309585Y630328D01*
X309585Y634472D01*
X311171Y638300D01*
X314100Y641229D01*
X317928Y642815D01*
X322072Y642815D01*
X325900Y641229D01*
X328829Y638300D01*
X330415Y634472D01*
X330415Y630328D01*
X328829Y626500D01*
X325900Y623571D01*
X322072Y621985D01*
X317928Y621985D01*
G37*
%LPD*%
%LPC*%
G36*
X595814Y464438D02*
X595814Y464438D01*
X595630Y464514D01*
X593806Y465270D01*
X592270Y466806D01*
X591438Y468814D01*
X591438Y470986D01*
X592270Y472994D01*
X593405Y474129D01*
X593484Y474228D01*
X593568Y474322D01*
X593592Y474364D01*
X593622Y474402D01*
X593676Y474516D01*
X593737Y474627D01*
X593750Y474674D01*
X593771Y474717D01*
X593797Y474841D01*
X593832Y474962D01*
X593837Y475023D01*
X593844Y475058D01*
X593843Y475106D01*
X593851Y475206D01*
X593851Y489994D01*
X593837Y490119D01*
X593830Y490246D01*
X593817Y490292D01*
X593811Y490340D01*
X593769Y490459D01*
X593734Y490580D01*
X593710Y490623D01*
X593694Y490668D01*
X593625Y490774D01*
X593564Y490885D01*
X593524Y490931D01*
X593505Y490961D01*
X593470Y490994D01*
X593405Y491071D01*
X592270Y492206D01*
X591438Y494214D01*
X591438Y496386D01*
X592270Y498394D01*
X593806Y499930D01*
X595814Y500762D01*
X597986Y500762D01*
X599994Y499930D01*
X601530Y498394D01*
X602362Y496386D01*
X602362Y494214D01*
X601530Y492206D01*
X600395Y491071D01*
X600316Y490972D01*
X600232Y490878D01*
X600208Y490836D01*
X600178Y490798D01*
X600124Y490684D01*
X600063Y490573D01*
X600050Y490526D01*
X600029Y490483D01*
X600003Y490359D01*
X599968Y490238D01*
X599963Y490177D01*
X599956Y490142D01*
X599957Y490094D01*
X599949Y489994D01*
X599949Y475206D01*
X599963Y475081D01*
X599970Y474954D01*
X599983Y474908D01*
X599989Y474860D01*
X600031Y474741D01*
X600066Y474620D01*
X600090Y474577D01*
X600106Y474532D01*
X600175Y474426D01*
X600236Y474315D01*
X600276Y474269D01*
X600295Y474239D01*
X600330Y474206D01*
X600395Y474129D01*
X601530Y472994D01*
X602362Y470986D01*
X602362Y468814D01*
X601530Y466806D01*
X599994Y465270D01*
X597986Y464438D01*
X595814Y464438D01*
G37*
%LPD*%
%LPC*%
G36*
X237723Y550163D02*
X237723Y550163D01*
X232663Y555223D01*
X232663Y562377D01*
X237723Y567437D01*
X244877Y567437D01*
X249937Y562377D01*
X249937Y555223D01*
X244877Y550163D01*
X237723Y550163D01*
G37*
%LPD*%
%LPC*%
G36*
X237723Y346963D02*
X237723Y346963D01*
X232663Y352023D01*
X232663Y359177D01*
X237723Y364237D01*
X244877Y364237D01*
X249937Y359177D01*
X249937Y352023D01*
X244877Y346963D01*
X237723Y346963D01*
G37*
%LPD*%
%LPC*%
G36*
X237723Y143763D02*
X237723Y143763D01*
X232663Y148823D01*
X232663Y155977D01*
X237723Y161037D01*
X244877Y161037D01*
X249937Y155977D01*
X249937Y148823D01*
X244877Y143763D01*
X237723Y143763D01*
G37*
%LPD*%
%LPC*%
G36*
X326649Y435927D02*
X326649Y435927D01*
X321627Y440949D01*
X321627Y448051D01*
X326649Y453073D01*
X333751Y453073D01*
X338773Y448051D01*
X338773Y440949D01*
X333751Y435927D01*
X326649Y435927D01*
G37*
%LPD*%
%LPC*%
G36*
X326649Y461327D02*
X326649Y461327D01*
X321627Y466349D01*
X321627Y473451D01*
X326649Y478473D01*
X333751Y478473D01*
X338773Y473451D01*
X338773Y466349D01*
X333751Y461327D01*
X326649Y461327D01*
G37*
%LPD*%
%LPC*%
G36*
X352049Y461327D02*
X352049Y461327D01*
X347027Y466349D01*
X347027Y473451D01*
X352049Y478473D01*
X359151Y478473D01*
X364173Y473451D01*
X364173Y466349D01*
X359151Y461327D01*
X352049Y461327D01*
G37*
%LPD*%
%LPC*%
G36*
X352049Y486727D02*
X352049Y486727D01*
X347027Y491749D01*
X347027Y498851D01*
X352049Y503873D01*
X359151Y503873D01*
X364173Y498851D01*
X364173Y491749D01*
X359151Y486727D01*
X352049Y486727D01*
G37*
%LPD*%
%LPC*%
G36*
X352049Y435927D02*
X352049Y435927D01*
X347027Y440949D01*
X347027Y448051D01*
X352049Y453073D01*
X359151Y453073D01*
X364173Y448051D01*
X364173Y440949D01*
X359151Y435927D01*
X352049Y435927D01*
G37*
%LPD*%
%LPC*%
G36*
X307847Y282447D02*
X307847Y282447D01*
X307847Y291847D01*
X315686Y291847D01*
X317621Y291540D01*
X319484Y290935D01*
X321230Y290045D01*
X322814Y288894D01*
X324200Y287508D01*
X325351Y285924D01*
X326241Y284178D01*
X326803Y282447D01*
X307847Y282447D01*
G37*
%LPD*%
%LPC*%
G36*
X409447Y180847D02*
X409447Y180847D01*
X409447Y190247D01*
X417286Y190247D01*
X419221Y189940D01*
X421084Y189335D01*
X422830Y188445D01*
X424414Y187294D01*
X425800Y185908D01*
X426951Y184324D01*
X427841Y182578D01*
X428403Y180847D01*
X409447Y180847D01*
G37*
%LPD*%
%LPC*%
G36*
X282797Y282447D02*
X282797Y282447D01*
X283359Y284178D01*
X284249Y285924D01*
X285400Y287508D01*
X286786Y288894D01*
X288370Y290045D01*
X290116Y290935D01*
X291979Y291540D01*
X293914Y291847D01*
X301753Y291847D01*
X301753Y282447D01*
X282797Y282447D01*
G37*
%LPD*%
%LPC*%
G36*
X384397Y180847D02*
X384397Y180847D01*
X384959Y182578D01*
X385849Y184324D01*
X387000Y185908D01*
X388386Y187294D01*
X389970Y188445D01*
X391716Y189335D01*
X393579Y189940D01*
X395514Y190247D01*
X403353Y190247D01*
X403353Y180847D01*
X384397Y180847D01*
G37*
%LPD*%
%LPC*%
G36*
X307847Y266953D02*
X307847Y266953D01*
X307847Y276353D01*
X326803Y276353D01*
X326241Y274622D01*
X325351Y272876D01*
X324200Y271292D01*
X322814Y269906D01*
X321230Y268755D01*
X319484Y267865D01*
X317621Y267260D01*
X315686Y266953D01*
X307847Y266953D01*
G37*
%LPD*%
%LPC*%
G36*
X409447Y165353D02*
X409447Y165353D01*
X409447Y174753D01*
X428403Y174753D01*
X427841Y173022D01*
X426951Y171276D01*
X425800Y169692D01*
X424414Y168306D01*
X422830Y167155D01*
X421084Y166265D01*
X419221Y165660D01*
X417286Y165353D01*
X409447Y165353D01*
G37*
%LPD*%
%LPC*%
G36*
X293914Y266953D02*
X293914Y266953D01*
X291979Y267260D01*
X290116Y267865D01*
X288370Y268755D01*
X286786Y269906D01*
X285400Y271292D01*
X284249Y272876D01*
X283359Y274622D01*
X282797Y276353D01*
X301753Y276353D01*
X301753Y266953D01*
X293914Y266953D01*
G37*
%LPD*%
%LPC*%
G36*
X395514Y165353D02*
X395514Y165353D01*
X393579Y165660D01*
X391716Y166265D01*
X389970Y167155D01*
X388386Y168306D01*
X387000Y169692D01*
X385849Y171276D01*
X384959Y173022D01*
X384397Y174753D01*
X403353Y174753D01*
X403353Y165353D01*
X395514Y165353D01*
G37*
%LPD*%
%LPC*%
G36*
X702397Y424659D02*
X702397Y424659D01*
X700545Y425427D01*
X699127Y426845D01*
X698359Y428697D01*
X698359Y430703D01*
X699127Y432555D01*
X700545Y433973D01*
X702397Y434741D01*
X704403Y434741D01*
X706255Y433973D01*
X707673Y432555D01*
X708441Y430703D01*
X708441Y428697D01*
X707673Y426845D01*
X706255Y425427D01*
X704403Y424659D01*
X702397Y424659D01*
G37*
%LPD*%
%LPC*%
G36*
X702397Y384659D02*
X702397Y384659D01*
X700545Y385427D01*
X699127Y386845D01*
X698359Y388697D01*
X698359Y390703D01*
X699127Y392555D01*
X700545Y393973D01*
X702397Y394741D01*
X704403Y394741D01*
X706255Y393973D01*
X707673Y392555D01*
X708441Y390703D01*
X708441Y388697D01*
X707673Y386845D01*
X706255Y385427D01*
X704403Y384659D01*
X702397Y384659D01*
G37*
%LPD*%
%LPC*%
G36*
X601899Y634899D02*
X601899Y634899D01*
X601899Y643063D01*
X601958Y643054D01*
X603593Y642522D01*
X605125Y641742D01*
X606516Y640731D01*
X607731Y639516D01*
X608742Y638125D01*
X609522Y636593D01*
X610054Y634958D01*
X610063Y634899D01*
X601899Y634899D01*
G37*
%LPD*%
%LPC*%
G36*
X588737Y634899D02*
X588737Y634899D01*
X588746Y634958D01*
X589278Y636593D01*
X590058Y638125D01*
X591069Y639516D01*
X592284Y640731D01*
X593675Y641742D01*
X595207Y642522D01*
X596842Y643054D01*
X596901Y643063D01*
X596901Y634899D01*
X588737Y634899D01*
G37*
%LPD*%
%LPC*%
G36*
X487137Y634899D02*
X487137Y634899D01*
X487146Y634958D01*
X487678Y636593D01*
X488458Y638125D01*
X489469Y639516D01*
X490684Y640731D01*
X492075Y641742D01*
X493607Y642522D01*
X495242Y643054D01*
X495301Y643063D01*
X495301Y634899D01*
X487137Y634899D01*
G37*
%LPD*%
%LPC*%
G36*
X601899Y629901D02*
X601899Y629901D01*
X610063Y629901D01*
X610054Y629842D01*
X609522Y628207D01*
X608742Y626675D01*
X607731Y625284D01*
X606516Y624069D01*
X605125Y623058D01*
X603593Y622278D01*
X601958Y621746D01*
X601899Y621737D01*
X601899Y629901D01*
G37*
%LPD*%
%LPC*%
G36*
X596842Y621746D02*
X596842Y621746D01*
X595207Y622278D01*
X593675Y623058D01*
X592284Y624069D01*
X591069Y625284D01*
X590058Y626675D01*
X589278Y628207D01*
X588746Y629842D01*
X588737Y629901D01*
X596901Y629901D01*
X596901Y621737D01*
X596842Y621746D01*
G37*
%LPD*%
%LPC*%
G36*
X217931Y535431D02*
X217931Y535431D01*
X217931Y542545D01*
X219688Y542545D01*
X225045Y537188D01*
X225045Y535431D01*
X217931Y535431D01*
G37*
%LPD*%
%LPC*%
G36*
X217931Y357631D02*
X217931Y357631D01*
X217931Y364745D01*
X219688Y364745D01*
X225045Y359388D01*
X225045Y357631D01*
X217931Y357631D01*
G37*
%LPD*%
%LPC*%
G36*
X217931Y154431D02*
X217931Y154431D01*
X217931Y161545D01*
X219688Y161545D01*
X225045Y156188D01*
X225045Y154431D01*
X217931Y154431D01*
G37*
%LPD*%
%LPC*%
G36*
X206755Y535431D02*
X206755Y535431D01*
X206755Y537188D01*
X212112Y542545D01*
X213869Y542545D01*
X213869Y535431D01*
X206755Y535431D01*
G37*
%LPD*%
%LPC*%
G36*
X206755Y357631D02*
X206755Y357631D01*
X206755Y359388D01*
X212112Y364745D01*
X213869Y364745D01*
X213869Y357631D01*
X206755Y357631D01*
G37*
%LPD*%
%LPC*%
G36*
X206755Y154431D02*
X206755Y154431D01*
X206755Y156188D01*
X212112Y161545D01*
X213869Y161545D01*
X213869Y154431D01*
X206755Y154431D01*
G37*
%LPD*%
%LPC*%
G36*
X217931Y346455D02*
X217931Y346455D01*
X217931Y353569D01*
X225045Y353569D01*
X225045Y351812D01*
X219688Y346455D01*
X217931Y346455D01*
G37*
%LPD*%
%LPC*%
G36*
X217931Y524255D02*
X217931Y524255D01*
X217931Y531369D01*
X225045Y531369D01*
X225045Y529612D01*
X219688Y524255D01*
X217931Y524255D01*
G37*
%LPD*%
%LPC*%
G36*
X217931Y143255D02*
X217931Y143255D01*
X217931Y150369D01*
X225045Y150369D01*
X225045Y148612D01*
X219688Y143255D01*
X217931Y143255D01*
G37*
%LPD*%
%LPC*%
G36*
X212112Y346455D02*
X212112Y346455D01*
X206755Y351812D01*
X206755Y353569D01*
X213869Y353569D01*
X213869Y346455D01*
X212112Y346455D01*
G37*
%LPD*%
%LPC*%
G36*
X212112Y143255D02*
X212112Y143255D01*
X206755Y148612D01*
X206755Y150369D01*
X213869Y150369D01*
X213869Y143255D01*
X212112Y143255D01*
G37*
%LPD*%
%LPC*%
G36*
X212112Y524255D02*
X212112Y524255D01*
X206755Y529612D01*
X206755Y531369D01*
X213869Y531369D01*
X213869Y524255D01*
X212112Y524255D01*
G37*
%LPD*%
%LPC*%
G36*
X332199Y497299D02*
X332199Y497299D01*
X332199Y504381D01*
X333961Y504381D01*
X339281Y499061D01*
X339281Y497299D01*
X332199Y497299D01*
G37*
%LPD*%
%LPC*%
G36*
X332199Y486219D02*
X332199Y486219D01*
X332199Y493301D01*
X339281Y493301D01*
X339281Y491539D01*
X333961Y486219D01*
X332199Y486219D01*
G37*
%LPD*%
%LPC*%
G36*
X321119Y497299D02*
X321119Y497299D01*
X321119Y499061D01*
X326439Y504381D01*
X328201Y504381D01*
X328201Y497299D01*
X321119Y497299D01*
G37*
%LPD*%
%LPC*%
G36*
X326439Y486219D02*
X326439Y486219D01*
X321119Y491539D01*
X321119Y493301D01*
X328201Y493301D01*
X328201Y486219D01*
X326439Y486219D01*
G37*
%LPD*%
%LPC*%
G36*
X471423Y471423D02*
X471423Y471423D01*
X471423Y475684D01*
X471641Y475640D01*
X472728Y475190D01*
X473706Y474537D01*
X474537Y473706D01*
X475190Y472728D01*
X475640Y471641D01*
X475684Y471423D01*
X471423Y471423D01*
G37*
%LPD*%
%LPC*%
G36*
X464116Y471423D02*
X464116Y471423D01*
X464160Y471641D01*
X464610Y472728D01*
X465263Y473706D01*
X466094Y474537D01*
X467072Y475190D01*
X468159Y475640D01*
X468377Y475684D01*
X468377Y471423D01*
X464116Y471423D01*
G37*
%LPD*%
%LPC*%
G36*
X406399Y177799D02*
X406399Y177799D01*
X406399Y177801D01*
X406401Y177801D01*
X406401Y177799D01*
X406399Y177799D01*
G37*
%LPD*%
%LPC*%
G36*
X685799Y190499D02*
X685799Y190499D01*
X685799Y190501D01*
X685801Y190501D01*
X685801Y190499D01*
X685799Y190499D01*
G37*
%LPD*%
%LPC*%
G36*
X304799Y279399D02*
X304799Y279399D01*
X304799Y279401D01*
X304801Y279401D01*
X304801Y279399D01*
X304799Y279399D01*
G37*
%LPD*%
D10*
X294894Y177800D02*
X314706Y177800D01*
X314706Y228600D02*
X294894Y228600D01*
X294894Y279400D02*
X314706Y279400D01*
X396494Y177800D02*
X416306Y177800D01*
X416306Y228600D02*
X396494Y228600D01*
X396494Y279400D02*
X416306Y279400D01*
D11*
X330200Y469900D03*
X355600Y469900D03*
X330200Y444500D03*
X355600Y444500D03*
X355600Y495300D03*
X330200Y495300D03*
D12*
X599400Y632400D03*
X574000Y632400D03*
X548600Y632400D03*
X523200Y632400D03*
X497800Y632400D03*
X472400Y632400D03*
X447000Y632400D03*
X421600Y632400D03*
X396200Y632400D03*
X370800Y632400D03*
X345400Y632400D03*
X320000Y632400D03*
X294600Y632400D03*
X269200Y632400D03*
X243800Y632400D03*
X218400Y632400D03*
D13*
X241300Y355600D03*
X215900Y355600D03*
X241300Y152400D03*
X215900Y152400D03*
D14*
X215900Y533400D03*
X266700Y533400D03*
X241300Y558800D03*
D15*
X685800Y292100D03*
D16*
X520700Y228600D03*
D17*
X558800Y228600D01*
D16*
X558800Y228600D03*
X431800Y444500D03*
D18*
X457200Y444500D02*
X469900Y457200D01*
X457200Y444500D02*
X431800Y444500D01*
D16*
X469900Y457200D03*
D18*
X444500Y482600D02*
X406400Y482600D01*
D16*
X406400Y482600D03*
X444500Y482600D03*
X469900Y469900D03*
D15*
X685800Y190500D03*
D16*
X444500Y431800D03*
D18*
X457200Y431800D01*
X469900Y444500D01*
D16*
X469900Y444500D03*
X444500Y419100D03*
D18*
X393700Y469900D01*
X393700Y533400D01*
X468570Y608270D01*
X489835Y608270D01*
X513965Y632400D02*
X523200Y632400D01*
X513965Y632400D02*
X489835Y608270D01*
D16*
X444500Y406400D03*
D18*
X381000Y469900D01*
X381000Y541000D02*
X472400Y632400D01*
X381000Y541000D02*
X381000Y469900D01*
D16*
X596900Y469900D03*
D18*
X596900Y495300D01*
D16*
X596900Y495300D03*
X444500Y457200D03*
D17*
X419100Y457200D01*
D16*
X419100Y457200D03*
X520700Y419100D03*
D17*
X584200Y419100D01*
X635000Y469900D01*
D16*
X635000Y469900D03*
D17*
X574000Y632400D02*
X549362Y657038D01*
X225238Y657038D01*
X242968Y533400D02*
X266700Y533400D01*
X203200Y573168D02*
X203200Y635000D01*
X225238Y657038D01*
X203200Y573168D02*
X242968Y533400D01*
D16*
X406400Y469900D03*
D18*
X431800Y469900D01*
D16*
X431800Y469900D03*
M02*
