G04 EAGLE Gerber RS-274X export*
G75*
%MOMM*%
%FSLAX34Y34*%
%LPD*%
%IN*%
%IPPOS*%
%AMOC8*
5,1,8,0,0,1.08239X$1,22.5*%
G01*
%ADD10C,0.254000*%


D10*
X114300Y63500D02*
X825300Y63500D01*
X825300Y682500D01*
X114300Y682500D01*
X114300Y63500D01*
X152400Y647201D02*
X152322Y646206D01*
X152166Y645220D01*
X151933Y644250D01*
X151624Y643301D01*
X151242Y642379D01*
X150789Y641490D01*
X150268Y640639D01*
X149681Y639831D01*
X149033Y639073D01*
X148327Y638367D01*
X147569Y637719D01*
X146761Y637132D01*
X145910Y636611D01*
X145021Y636158D01*
X144099Y635776D01*
X143150Y635467D01*
X142180Y635234D01*
X141194Y635078D01*
X140199Y635000D01*
X139201Y635000D01*
X138206Y635078D01*
X137220Y635234D01*
X136250Y635467D01*
X135301Y635776D01*
X134379Y636158D01*
X133490Y636611D01*
X132639Y637132D01*
X131831Y637719D01*
X131073Y638367D01*
X130367Y639073D01*
X129719Y639831D01*
X129132Y640639D01*
X128611Y641490D01*
X128158Y642379D01*
X127776Y643301D01*
X127467Y644250D01*
X127234Y645220D01*
X127078Y646206D01*
X127000Y647201D01*
X127000Y648199D01*
X127078Y649194D01*
X127234Y650180D01*
X127467Y651150D01*
X127776Y652099D01*
X128158Y653021D01*
X128611Y653910D01*
X129132Y654761D01*
X129719Y655569D01*
X130367Y656327D01*
X131073Y657033D01*
X131831Y657681D01*
X132639Y658268D01*
X133490Y658789D01*
X134379Y659242D01*
X135301Y659624D01*
X136250Y659933D01*
X137220Y660166D01*
X138206Y660322D01*
X139201Y660400D01*
X140199Y660400D01*
X141194Y660322D01*
X142180Y660166D01*
X143150Y659933D01*
X144099Y659624D01*
X145021Y659242D01*
X145910Y658789D01*
X146761Y658268D01*
X147569Y657681D01*
X148327Y657033D01*
X149033Y656327D01*
X149681Y655569D01*
X150268Y654761D01*
X150789Y653910D01*
X151242Y653021D01*
X151624Y652099D01*
X151933Y651150D01*
X152166Y650180D01*
X152322Y649194D01*
X152400Y648199D01*
X152400Y647201D01*
X165100Y88401D02*
X165022Y87406D01*
X164866Y86420D01*
X164633Y85450D01*
X164324Y84501D01*
X163942Y83579D01*
X163489Y82690D01*
X162968Y81839D01*
X162381Y81031D01*
X161733Y80273D01*
X161027Y79567D01*
X160269Y78919D01*
X159461Y78332D01*
X158610Y77811D01*
X157721Y77358D01*
X156799Y76976D01*
X155850Y76667D01*
X154880Y76434D01*
X153894Y76278D01*
X152899Y76200D01*
X151901Y76200D01*
X150906Y76278D01*
X149920Y76434D01*
X148950Y76667D01*
X148001Y76976D01*
X147079Y77358D01*
X146190Y77811D01*
X145339Y78332D01*
X144531Y78919D01*
X143773Y79567D01*
X143067Y80273D01*
X142419Y81031D01*
X141832Y81839D01*
X141311Y82690D01*
X140858Y83579D01*
X140476Y84501D01*
X140167Y85450D01*
X139934Y86420D01*
X139778Y87406D01*
X139700Y88401D01*
X139700Y89399D01*
X139778Y90394D01*
X139934Y91380D01*
X140167Y92350D01*
X140476Y93299D01*
X140858Y94221D01*
X141311Y95110D01*
X141832Y95961D01*
X142419Y96769D01*
X143067Y97527D01*
X143773Y98233D01*
X144531Y98881D01*
X145339Y99468D01*
X146190Y99989D01*
X147079Y100442D01*
X148001Y100824D01*
X148950Y101133D01*
X149920Y101366D01*
X150906Y101522D01*
X151901Y101600D01*
X152899Y101600D01*
X153894Y101522D01*
X154880Y101366D01*
X155850Y101133D01*
X156799Y100824D01*
X157721Y100442D01*
X158610Y99989D01*
X159461Y99468D01*
X160269Y98881D01*
X161027Y98233D01*
X161733Y97527D01*
X162381Y96769D01*
X162968Y95961D01*
X163489Y95110D01*
X163942Y94221D01*
X164324Y93299D01*
X164633Y92350D01*
X164866Y91380D01*
X165022Y90394D01*
X165100Y89399D01*
X165100Y88401D01*
X812800Y101101D02*
X812722Y100106D01*
X812566Y99120D01*
X812333Y98150D01*
X812024Y97201D01*
X811642Y96279D01*
X811189Y95390D01*
X810668Y94539D01*
X810081Y93731D01*
X809433Y92973D01*
X808727Y92267D01*
X807969Y91619D01*
X807161Y91032D01*
X806310Y90511D01*
X805421Y90058D01*
X804499Y89676D01*
X803550Y89367D01*
X802580Y89134D01*
X801594Y88978D01*
X800599Y88900D01*
X799601Y88900D01*
X798606Y88978D01*
X797620Y89134D01*
X796650Y89367D01*
X795701Y89676D01*
X794779Y90058D01*
X793890Y90511D01*
X793039Y91032D01*
X792231Y91619D01*
X791473Y92267D01*
X790767Y92973D01*
X790119Y93731D01*
X789532Y94539D01*
X789011Y95390D01*
X788558Y96279D01*
X788176Y97201D01*
X787867Y98150D01*
X787634Y99120D01*
X787478Y100106D01*
X787400Y101101D01*
X787400Y102099D01*
X787478Y103094D01*
X787634Y104080D01*
X787867Y105050D01*
X788176Y105999D01*
X788558Y106921D01*
X789011Y107810D01*
X789532Y108661D01*
X790119Y109469D01*
X790767Y110227D01*
X791473Y110933D01*
X792231Y111581D01*
X793039Y112168D01*
X793890Y112689D01*
X794779Y113142D01*
X795701Y113524D01*
X796650Y113833D01*
X797620Y114066D01*
X798606Y114222D01*
X799601Y114300D01*
X800599Y114300D01*
X801594Y114222D01*
X802580Y114066D01*
X803550Y113833D01*
X804499Y113524D01*
X805421Y113142D01*
X806310Y112689D01*
X807161Y112168D01*
X807969Y111581D01*
X808727Y110933D01*
X809433Y110227D01*
X810081Y109469D01*
X810668Y108661D01*
X811189Y107810D01*
X811642Y106921D01*
X812024Y105999D01*
X812333Y105050D01*
X812566Y104080D01*
X812722Y103094D01*
X812800Y102099D01*
X812800Y101101D01*
X800100Y659901D02*
X800022Y658906D01*
X799866Y657920D01*
X799633Y656950D01*
X799324Y656001D01*
X798942Y655079D01*
X798489Y654190D01*
X797968Y653339D01*
X797381Y652531D01*
X796733Y651773D01*
X796027Y651067D01*
X795269Y650419D01*
X794461Y649832D01*
X793610Y649311D01*
X792721Y648858D01*
X791799Y648476D01*
X790850Y648167D01*
X789880Y647934D01*
X788894Y647778D01*
X787899Y647700D01*
X786901Y647700D01*
X785906Y647778D01*
X784920Y647934D01*
X783950Y648167D01*
X783001Y648476D01*
X782079Y648858D01*
X781190Y649311D01*
X780339Y649832D01*
X779531Y650419D01*
X778773Y651067D01*
X778067Y651773D01*
X777419Y652531D01*
X776832Y653339D01*
X776311Y654190D01*
X775858Y655079D01*
X775476Y656001D01*
X775167Y656950D01*
X774934Y657920D01*
X774778Y658906D01*
X774700Y659901D01*
X774700Y660899D01*
X774778Y661894D01*
X774934Y662880D01*
X775167Y663850D01*
X775476Y664799D01*
X775858Y665721D01*
X776311Y666610D01*
X776832Y667461D01*
X777419Y668269D01*
X778067Y669027D01*
X778773Y669733D01*
X779531Y670381D01*
X780339Y670968D01*
X781190Y671489D01*
X782079Y671942D01*
X783001Y672324D01*
X783950Y672633D01*
X784920Y672866D01*
X785906Y673022D01*
X786901Y673100D01*
X787899Y673100D01*
X788894Y673022D01*
X789880Y672866D01*
X790850Y672633D01*
X791799Y672324D01*
X792721Y671942D01*
X793610Y671489D01*
X794461Y670968D01*
X795269Y670381D01*
X796027Y669733D01*
X796733Y669027D01*
X797381Y668269D01*
X797968Y667461D01*
X798489Y666610D01*
X798942Y665721D01*
X799324Y664799D01*
X799633Y663850D01*
X799866Y662880D01*
X800022Y661894D01*
X800100Y660899D01*
X800100Y659901D01*
X369570Y177301D02*
X369499Y176306D01*
X369357Y175318D01*
X369145Y174343D01*
X368864Y173385D01*
X368515Y172451D01*
X368100Y171543D01*
X367622Y170667D01*
X367083Y169828D01*
X366485Y169029D01*
X365831Y168275D01*
X365125Y167569D01*
X364371Y166915D01*
X363573Y166317D01*
X362733Y165778D01*
X361857Y165300D01*
X360950Y164885D01*
X360015Y164536D01*
X359057Y164255D01*
X358082Y164043D01*
X357094Y163901D01*
X356099Y163830D01*
X355101Y163830D01*
X354106Y163901D01*
X353118Y164043D01*
X352143Y164255D01*
X351185Y164536D01*
X350251Y164885D01*
X349343Y165300D01*
X348467Y165778D01*
X347628Y166317D01*
X346829Y166915D01*
X346075Y167569D01*
X345369Y168275D01*
X344715Y169029D01*
X344117Y169828D01*
X343578Y170667D01*
X343100Y171543D01*
X342685Y172451D01*
X342336Y173385D01*
X342055Y174343D01*
X341843Y175318D01*
X341701Y176306D01*
X341630Y177301D01*
X341630Y178299D01*
X341701Y179294D01*
X341843Y180282D01*
X342055Y181257D01*
X342336Y182215D01*
X342685Y183150D01*
X343100Y184057D01*
X343578Y184933D01*
X344117Y185773D01*
X344715Y186571D01*
X345369Y187325D01*
X346075Y188031D01*
X346829Y188685D01*
X347628Y189283D01*
X348467Y189822D01*
X349343Y190300D01*
X350251Y190715D01*
X351185Y191064D01*
X352143Y191345D01*
X353118Y191557D01*
X354106Y191699D01*
X355101Y191770D01*
X356099Y191770D01*
X357094Y191699D01*
X358082Y191557D01*
X359057Y191345D01*
X360015Y191064D01*
X360950Y190715D01*
X361857Y190300D01*
X362733Y189822D01*
X363573Y189283D01*
X364371Y188685D01*
X365125Y188031D01*
X365831Y187325D01*
X366485Y186571D01*
X367083Y185773D01*
X367622Y184933D01*
X368100Y184057D01*
X368515Y183150D01*
X368864Y182215D01*
X369145Y181257D01*
X369357Y180282D01*
X369499Y179294D01*
X369570Y178299D01*
X369570Y177301D01*
X641900Y942891D02*
X641977Y943870D01*
X642131Y944841D01*
X642360Y945796D01*
X642664Y946730D01*
X643039Y947637D01*
X643485Y948512D01*
X643999Y949350D01*
X644576Y950145D01*
X645214Y950892D01*
X645908Y951586D01*
X646655Y952224D01*
X647450Y952801D01*
X648288Y953315D01*
X649163Y953761D01*
X650070Y954136D01*
X651004Y954440D01*
X651960Y954669D01*
X652930Y954823D01*
X653909Y954900D01*
X654891Y954900D01*
X655870Y954823D01*
X656841Y954669D01*
X657796Y954440D01*
X658730Y954136D01*
X659637Y953761D01*
X660512Y953315D01*
X661350Y952801D01*
X662145Y952224D01*
X662892Y951586D01*
X663586Y950892D01*
X664224Y950145D01*
X664801Y949350D01*
X665315Y948512D01*
X665761Y947637D01*
X666136Y946730D01*
X666440Y945796D01*
X666669Y944841D01*
X666823Y943870D01*
X666900Y942891D01*
X666900Y941909D01*
X666823Y940930D01*
X666669Y939960D01*
X666440Y939004D01*
X666136Y938070D01*
X665761Y937163D01*
X665315Y936288D01*
X664801Y935450D01*
X664224Y934655D01*
X663586Y933908D01*
X662892Y933214D01*
X662145Y932576D01*
X661350Y931999D01*
X660512Y931485D01*
X659637Y931039D01*
X658730Y930664D01*
X657796Y930360D01*
X656841Y930131D01*
X655870Y929977D01*
X654891Y929900D01*
X653909Y929900D01*
X652930Y929977D01*
X651960Y930131D01*
X651004Y930360D01*
X650070Y930664D01*
X649163Y931039D01*
X648288Y931485D01*
X647450Y931999D01*
X646655Y932576D01*
X645908Y933214D01*
X645214Y933908D01*
X644576Y934655D01*
X643999Y935450D01*
X643485Y936288D01*
X643039Y937163D01*
X642664Y938070D01*
X642360Y939004D01*
X642131Y939960D01*
X641977Y940930D01*
X641900Y941909D01*
X641900Y942891D01*
X-108100Y942891D02*
X-108023Y943870D01*
X-107869Y944841D01*
X-107640Y945796D01*
X-107336Y946730D01*
X-106961Y947637D01*
X-106515Y948512D01*
X-106001Y949350D01*
X-105424Y950145D01*
X-104786Y950892D01*
X-104092Y951586D01*
X-103345Y952224D01*
X-102550Y952801D01*
X-101712Y953315D01*
X-100837Y953761D01*
X-99930Y954136D01*
X-98996Y954440D01*
X-98041Y954669D01*
X-97070Y954823D01*
X-96091Y954900D01*
X-95109Y954900D01*
X-94130Y954823D01*
X-93160Y954669D01*
X-92204Y954440D01*
X-91270Y954136D01*
X-90363Y953761D01*
X-89488Y953315D01*
X-88650Y952801D01*
X-87855Y952224D01*
X-87108Y951586D01*
X-86414Y950892D01*
X-85776Y950145D01*
X-85199Y949350D01*
X-84685Y948512D01*
X-84239Y947637D01*
X-83864Y946730D01*
X-83560Y945796D01*
X-83331Y944841D01*
X-83177Y943870D01*
X-83100Y942891D01*
X-83100Y941909D01*
X-83177Y940930D01*
X-83331Y939960D01*
X-83560Y939004D01*
X-83864Y938070D01*
X-84239Y937163D01*
X-84685Y936288D01*
X-85199Y935450D01*
X-85776Y934655D01*
X-86414Y933908D01*
X-87108Y933214D01*
X-87855Y932576D01*
X-88650Y931999D01*
X-89488Y931485D01*
X-90363Y931039D01*
X-91270Y930664D01*
X-92204Y930360D01*
X-93160Y930131D01*
X-94130Y929977D01*
X-95109Y929900D01*
X-96091Y929900D01*
X-97070Y929977D01*
X-98041Y930131D01*
X-98996Y930360D01*
X-99930Y930664D01*
X-100837Y931039D01*
X-101712Y931485D01*
X-102550Y931999D01*
X-103345Y932576D01*
X-104092Y933214D01*
X-104786Y933908D01*
X-105424Y934655D01*
X-106001Y935450D01*
X-106515Y936288D01*
X-106961Y937163D01*
X-107336Y938070D01*
X-107640Y939004D01*
X-107869Y939960D01*
X-108023Y940930D01*
X-108100Y941909D01*
X-108100Y942891D01*
X641900Y632891D02*
X641977Y633870D01*
X642131Y634841D01*
X642360Y635796D01*
X642664Y636730D01*
X643039Y637637D01*
X643485Y638512D01*
X643999Y639350D01*
X644576Y640145D01*
X645214Y640892D01*
X645908Y641586D01*
X646655Y642224D01*
X647450Y642801D01*
X648288Y643315D01*
X649163Y643761D01*
X650070Y644136D01*
X651004Y644440D01*
X651960Y644669D01*
X652930Y644823D01*
X653909Y644900D01*
X654891Y644900D01*
X655870Y644823D01*
X656841Y644669D01*
X657796Y644440D01*
X658730Y644136D01*
X659637Y643761D01*
X660512Y643315D01*
X661350Y642801D01*
X662145Y642224D01*
X662892Y641586D01*
X663586Y640892D01*
X664224Y640145D01*
X664801Y639350D01*
X665315Y638512D01*
X665761Y637637D01*
X666136Y636730D01*
X666440Y635796D01*
X666669Y634841D01*
X666823Y633870D01*
X666900Y632891D01*
X666900Y631909D01*
X666823Y630930D01*
X666669Y629960D01*
X666440Y629004D01*
X666136Y628070D01*
X665761Y627163D01*
X665315Y626288D01*
X664801Y625450D01*
X664224Y624655D01*
X663586Y623908D01*
X662892Y623214D01*
X662145Y622576D01*
X661350Y621999D01*
X660512Y621485D01*
X659637Y621039D01*
X658730Y620664D01*
X657796Y620360D01*
X656841Y620131D01*
X655870Y619977D01*
X654891Y619900D01*
X653909Y619900D01*
X652930Y619977D01*
X651960Y620131D01*
X651004Y620360D01*
X650070Y620664D01*
X649163Y621039D01*
X648288Y621485D01*
X647450Y621999D01*
X646655Y622576D01*
X645908Y623214D01*
X645214Y623908D01*
X644576Y624655D01*
X643999Y625450D01*
X643485Y626288D01*
X643039Y627163D01*
X642664Y628070D01*
X642360Y629004D01*
X642131Y629960D01*
X641977Y630930D01*
X641900Y631909D01*
X641900Y632891D01*
X-108100Y632891D02*
X-108023Y633870D01*
X-107869Y634841D01*
X-107640Y635796D01*
X-107336Y636730D01*
X-106961Y637637D01*
X-106515Y638512D01*
X-106001Y639350D01*
X-105424Y640145D01*
X-104786Y640892D01*
X-104092Y641586D01*
X-103345Y642224D01*
X-102550Y642801D01*
X-101712Y643315D01*
X-100837Y643761D01*
X-99930Y644136D01*
X-98996Y644440D01*
X-98041Y644669D01*
X-97070Y644823D01*
X-96091Y644900D01*
X-95109Y644900D01*
X-94130Y644823D01*
X-93160Y644669D01*
X-92204Y644440D01*
X-91270Y644136D01*
X-90363Y643761D01*
X-89488Y643315D01*
X-88650Y642801D01*
X-87855Y642224D01*
X-87108Y641586D01*
X-86414Y640892D01*
X-85776Y640145D01*
X-85199Y639350D01*
X-84685Y638512D01*
X-84239Y637637D01*
X-83864Y636730D01*
X-83560Y635796D01*
X-83331Y634841D01*
X-83177Y633870D01*
X-83100Y632891D01*
X-83100Y631909D01*
X-83177Y630930D01*
X-83331Y629960D01*
X-83560Y629004D01*
X-83864Y628070D01*
X-84239Y627163D01*
X-84685Y626288D01*
X-85199Y625450D01*
X-85776Y624655D01*
X-86414Y623908D01*
X-87108Y623214D01*
X-87855Y622576D01*
X-88650Y621999D01*
X-89488Y621485D01*
X-90363Y621039D01*
X-91270Y620664D01*
X-92204Y620360D01*
X-93160Y620131D01*
X-94130Y619977D01*
X-95109Y619900D01*
X-96091Y619900D01*
X-97070Y619977D01*
X-98041Y620131D01*
X-98996Y620360D01*
X-99930Y620664D01*
X-100837Y621039D01*
X-101712Y621485D01*
X-102550Y621999D01*
X-103345Y622576D01*
X-104092Y623214D01*
X-104786Y623908D01*
X-105424Y624655D01*
X-106001Y625450D01*
X-106515Y626288D01*
X-106961Y627163D01*
X-107336Y628070D01*
X-107640Y629004D01*
X-107869Y629960D01*
X-108023Y630930D01*
X-108100Y631909D01*
X-108100Y632891D01*
X703203Y427200D02*
X702815Y427262D01*
X702440Y427383D01*
X702090Y427562D01*
X701771Y427793D01*
X701493Y428071D01*
X701262Y428390D01*
X701083Y428740D01*
X700962Y429115D01*
X700900Y429503D01*
X700900Y429897D01*
X700962Y430285D01*
X701083Y430660D01*
X701262Y431010D01*
X701493Y431329D01*
X701771Y431607D01*
X702090Y431838D01*
X702440Y432017D01*
X702815Y432138D01*
X703203Y432200D01*
X703597Y432200D01*
X703985Y432138D01*
X704360Y432017D01*
X704710Y431838D01*
X705029Y431607D01*
X705307Y431329D01*
X705538Y431010D01*
X705717Y430660D01*
X705838Y430285D01*
X705900Y429897D01*
X705900Y429503D01*
X705838Y429115D01*
X705717Y428740D01*
X705538Y428390D01*
X705307Y428071D01*
X705029Y427793D01*
X704710Y427562D01*
X704360Y427383D01*
X703985Y427262D01*
X703597Y427200D01*
X703203Y427200D01*
X703203Y387200D02*
X702815Y387262D01*
X702440Y387383D01*
X702090Y387562D01*
X701771Y387793D01*
X701493Y388071D01*
X701262Y388390D01*
X701083Y388740D01*
X700962Y389115D01*
X700900Y389503D01*
X700900Y389897D01*
X700962Y390285D01*
X701083Y390660D01*
X701262Y391010D01*
X701493Y391329D01*
X701771Y391607D01*
X702090Y391838D01*
X702440Y392017D01*
X702815Y392138D01*
X703203Y392200D01*
X703597Y392200D01*
X703985Y392138D01*
X704360Y392017D01*
X704710Y391838D01*
X705029Y391607D01*
X705307Y391329D01*
X705538Y391010D01*
X705717Y390660D01*
X705838Y390285D01*
X705900Y389897D01*
X705900Y389503D01*
X705838Y389115D01*
X705717Y388740D01*
X705538Y388390D01*
X705307Y388071D01*
X705029Y387793D01*
X704710Y387562D01*
X704360Y387383D01*
X703985Y387262D01*
X703597Y387200D01*
X703203Y387200D01*
M02*
