G04 EAGLE Gerber RS-274X export*
G75*
%MOMM*%
%FSLAX34Y34*%
%LPD*%
%INSolderpaste Top*%
%IPPOS*%
%AMOC8*
5,1,8,0,0,1.08239X$1,22.5*%
G01*
%ADD10R,1.600000X0.550000*%
%ADD11R,0.550000X1.600000*%
%ADD12R,1.600000X1.300000*%
%ADD13R,1.300000X1.600000*%
%ADD14R,1.800000X0.400000*%
%ADD15R,1.350000X1.500000*%
%ADD16R,1.400000X1.500000*%
%ADD17R,1.100000X1.000000*%


D10*
X575200Y454600D03*
X575200Y462600D03*
X575200Y470600D03*
X575200Y478600D03*
X575200Y486600D03*
X575200Y494600D03*
X575200Y502600D03*
X575200Y510600D03*
D11*
X561400Y524400D03*
X553400Y524400D03*
X545400Y524400D03*
X537400Y524400D03*
X529400Y524400D03*
X521400Y524400D03*
X513400Y524400D03*
X505400Y524400D03*
D10*
X491600Y510600D03*
X491600Y502600D03*
X491600Y494600D03*
X491600Y486600D03*
X491600Y478600D03*
X491600Y470600D03*
X491600Y462600D03*
X491600Y454600D03*
D11*
X505400Y440800D03*
X513400Y440800D03*
X521400Y440800D03*
X529400Y440800D03*
X537400Y440800D03*
X545400Y440800D03*
X553400Y440800D03*
X561400Y440800D03*
D12*
X596900Y200000D03*
X596900Y181000D03*
X596900Y276200D03*
X596900Y257200D03*
D13*
X581000Y330200D03*
X562000Y330200D03*
D12*
X546100Y200000D03*
X546100Y181000D03*
X546100Y276200D03*
X546100Y257200D03*
D13*
X473100Y330200D03*
X492100Y330200D03*
X492100Y279400D03*
X473100Y279400D03*
X492100Y228600D03*
X473100Y228600D03*
D12*
X241300Y250800D03*
X241300Y231800D03*
X241300Y454000D03*
X241300Y435000D03*
D13*
X295300Y533400D03*
X314300Y533400D03*
D14*
X710400Y409700D03*
X710600Y403200D03*
X710600Y396700D03*
X710400Y416200D03*
X710400Y422700D03*
D15*
X682000Y369050D03*
X681950Y450500D03*
D16*
X708900Y442200D03*
X708900Y377200D03*
D17*
X670400Y394700D03*
X670400Y424700D03*
M02*
