G04 EAGLE Gerber RS-274X export*
G75*
%MOMM*%
%FSLAX34Y34*%
%LPD*%
%INSoldermask Top*%
%IPPOS*%
%AMOC8*
5,1,8,0,0,1.08239X$1,22.5*%
G01*
%ADD10C,2.641600*%
%ADD11C,2.082800*%
%ADD12C,2.895600*%
%ADD13P,1.525737X8X112.500000*%
%ADD14R,1.701600X0.651600*%
%ADD15R,0.651600X1.701600*%
%ADD16C,1.778000*%
%ADD17C,2.601600*%
%ADD18P,1.539592X8X202.500000*%
%ADD19P,1.539592X8X22.500000*%
%ADD20R,1.701600X1.401600*%
%ADD21R,1.401600X1.701600*%
%ADD22R,1.901600X0.501600*%
%ADD23R,1.451600X1.601600*%
%ADD24R,1.501600X1.601600*%
%ADD25C,0.601600*%
%ADD26R,1.201600X1.101600*%
%ADD27R,5.181600X5.181600*%

G36*
X751092Y624520D02*
X751092Y624520D01*
X751135Y624532D01*
X751201Y624539D01*
X752884Y624990D01*
X752925Y625009D01*
X752988Y625028D01*
X754568Y625765D01*
X754605Y625791D01*
X754664Y625820D01*
X756092Y626820D01*
X756123Y626852D01*
X756176Y626891D01*
X757409Y628124D01*
X757434Y628160D01*
X757480Y628208D01*
X758480Y629636D01*
X758498Y629677D01*
X758535Y629732D01*
X759272Y631312D01*
X759283Y631355D01*
X759310Y631416D01*
X759761Y633099D01*
X759763Y633131D01*
X759770Y633152D01*
X759770Y633167D01*
X759780Y633208D01*
X759932Y634945D01*
X759928Y634989D01*
X759932Y635055D01*
X759780Y636792D01*
X759768Y636835D01*
X759761Y636901D01*
X759310Y638584D01*
X759291Y638625D01*
X759272Y638688D01*
X758535Y640268D01*
X758509Y640305D01*
X758480Y640364D01*
X757480Y641792D01*
X757448Y641823D01*
X757409Y641876D01*
X756176Y643109D01*
X756140Y643134D01*
X756092Y643180D01*
X754664Y644180D01*
X754623Y644198D01*
X754568Y644235D01*
X752988Y644972D01*
X752945Y644983D01*
X752884Y645010D01*
X751201Y645461D01*
X751156Y645464D01*
X751092Y645480D01*
X749355Y645632D01*
X749311Y645628D01*
X749245Y645632D01*
X747508Y645480D01*
X747465Y645468D01*
X747399Y645461D01*
X745716Y645010D01*
X745675Y644991D01*
X745612Y644972D01*
X744032Y644235D01*
X743995Y644209D01*
X743936Y644180D01*
X742508Y643180D01*
X742477Y643148D01*
X742424Y643109D01*
X741191Y641876D01*
X741166Y641840D01*
X741120Y641792D01*
X740120Y640364D01*
X740102Y640323D01*
X740065Y640268D01*
X739328Y638688D01*
X739317Y638645D01*
X739290Y638584D01*
X738839Y636901D01*
X738836Y636856D01*
X738820Y636792D01*
X738668Y635055D01*
X738672Y635011D01*
X738668Y634945D01*
X738820Y633208D01*
X738832Y633165D01*
X738836Y633131D01*
X738836Y633115D01*
X738838Y633110D01*
X738839Y633099D01*
X739290Y631416D01*
X739309Y631375D01*
X739328Y631312D01*
X740065Y629732D01*
X740091Y629695D01*
X740120Y629636D01*
X741120Y628208D01*
X741152Y628177D01*
X741191Y628124D01*
X742424Y626891D01*
X742460Y626866D01*
X742508Y626820D01*
X743936Y625820D01*
X743977Y625802D01*
X744032Y625765D01*
X745612Y625028D01*
X745655Y625017D01*
X745716Y624990D01*
X747399Y624539D01*
X747444Y624536D01*
X747508Y624520D01*
X749245Y624368D01*
X749289Y624372D01*
X749355Y624368D01*
X751092Y624520D01*
G37*
G36*
X166892Y624520D02*
X166892Y624520D01*
X166935Y624532D01*
X167001Y624539D01*
X168684Y624990D01*
X168725Y625009D01*
X168788Y625028D01*
X170368Y625765D01*
X170405Y625791D01*
X170464Y625820D01*
X171892Y626820D01*
X171923Y626852D01*
X171976Y626891D01*
X173209Y628124D01*
X173234Y628160D01*
X173280Y628208D01*
X174280Y629636D01*
X174298Y629677D01*
X174335Y629732D01*
X175072Y631312D01*
X175083Y631355D01*
X175110Y631416D01*
X175561Y633099D01*
X175563Y633131D01*
X175570Y633152D01*
X175570Y633167D01*
X175580Y633208D01*
X175732Y634945D01*
X175728Y634989D01*
X175732Y635055D01*
X175580Y636792D01*
X175568Y636835D01*
X175561Y636901D01*
X175110Y638584D01*
X175091Y638625D01*
X175072Y638688D01*
X174335Y640268D01*
X174309Y640305D01*
X174280Y640364D01*
X173280Y641792D01*
X173248Y641823D01*
X173209Y641876D01*
X171976Y643109D01*
X171940Y643134D01*
X171892Y643180D01*
X170464Y644180D01*
X170423Y644198D01*
X170368Y644235D01*
X168788Y644972D01*
X168745Y644983D01*
X168684Y645010D01*
X167001Y645461D01*
X166956Y645464D01*
X166892Y645480D01*
X165155Y645632D01*
X165111Y645628D01*
X165045Y645632D01*
X163308Y645480D01*
X163265Y645468D01*
X163199Y645461D01*
X161516Y645010D01*
X161475Y644991D01*
X161412Y644972D01*
X159832Y644235D01*
X159795Y644209D01*
X159736Y644180D01*
X158308Y643180D01*
X158277Y643148D01*
X158224Y643109D01*
X156991Y641876D01*
X156966Y641840D01*
X156920Y641792D01*
X155920Y640364D01*
X155902Y640323D01*
X155865Y640268D01*
X155128Y638688D01*
X155117Y638645D01*
X155090Y638584D01*
X154639Y636901D01*
X154636Y636856D01*
X154620Y636792D01*
X154468Y635055D01*
X154472Y635011D01*
X154468Y634945D01*
X154620Y633208D01*
X154632Y633165D01*
X154636Y633131D01*
X154636Y633115D01*
X154638Y633110D01*
X154639Y633099D01*
X155090Y631416D01*
X155109Y631375D01*
X155128Y631312D01*
X155865Y629732D01*
X155891Y629695D01*
X155920Y629636D01*
X156920Y628208D01*
X156952Y628177D01*
X156991Y628124D01*
X158224Y626891D01*
X158260Y626866D01*
X158308Y626820D01*
X159736Y625820D01*
X159777Y625802D01*
X159832Y625765D01*
X161412Y625028D01*
X161455Y625017D01*
X161516Y624990D01*
X163199Y624539D01*
X163244Y624536D01*
X163308Y624520D01*
X165045Y624368D01*
X165089Y624372D01*
X165155Y624368D01*
X166892Y624520D01*
G37*
G36*
X763792Y116520D02*
X763792Y116520D01*
X763835Y116532D01*
X763901Y116539D01*
X765584Y116990D01*
X765625Y117009D01*
X765688Y117028D01*
X767268Y117765D01*
X767305Y117791D01*
X767364Y117820D01*
X768792Y118820D01*
X768823Y118852D01*
X768876Y118891D01*
X770109Y120124D01*
X770134Y120160D01*
X770180Y120208D01*
X771180Y121636D01*
X771198Y121677D01*
X771235Y121732D01*
X771972Y123312D01*
X771983Y123355D01*
X772010Y123416D01*
X772461Y125099D01*
X772463Y125131D01*
X772470Y125152D01*
X772470Y125167D01*
X772480Y125208D01*
X772632Y126945D01*
X772628Y126989D01*
X772632Y127055D01*
X772480Y128792D01*
X772468Y128835D01*
X772461Y128901D01*
X772010Y130584D01*
X771991Y130625D01*
X771972Y130688D01*
X771235Y132268D01*
X771209Y132305D01*
X771180Y132364D01*
X770180Y133792D01*
X770148Y133823D01*
X770109Y133876D01*
X768876Y135109D01*
X768840Y135134D01*
X768792Y135180D01*
X767364Y136180D01*
X767323Y136198D01*
X767268Y136235D01*
X765688Y136972D01*
X765645Y136983D01*
X765584Y137010D01*
X763901Y137461D01*
X763856Y137464D01*
X763792Y137480D01*
X762055Y137632D01*
X762011Y137628D01*
X761945Y137632D01*
X760208Y137480D01*
X760165Y137468D01*
X760099Y137461D01*
X758416Y137010D01*
X758375Y136991D01*
X758312Y136972D01*
X756732Y136235D01*
X756695Y136209D01*
X756636Y136180D01*
X755208Y135180D01*
X755177Y135148D01*
X755124Y135109D01*
X753891Y133876D01*
X753866Y133840D01*
X753820Y133792D01*
X752820Y132364D01*
X752802Y132323D01*
X752765Y132268D01*
X752028Y130688D01*
X752017Y130645D01*
X751990Y130584D01*
X751539Y128901D01*
X751536Y128856D01*
X751520Y128792D01*
X751368Y127055D01*
X751372Y127011D01*
X751368Y126945D01*
X751520Y125208D01*
X751532Y125165D01*
X751536Y125131D01*
X751536Y125115D01*
X751538Y125110D01*
X751539Y125099D01*
X751990Y123416D01*
X752009Y123375D01*
X752028Y123312D01*
X752765Y121732D01*
X752791Y121695D01*
X752820Y121636D01*
X753820Y120208D01*
X753852Y120177D01*
X753891Y120124D01*
X755124Y118891D01*
X755160Y118866D01*
X755208Y118820D01*
X756636Y117820D01*
X756677Y117802D01*
X756732Y117765D01*
X758312Y117028D01*
X758355Y117017D01*
X758416Y116990D01*
X760099Y116539D01*
X760144Y116536D01*
X760208Y116520D01*
X761945Y116368D01*
X761989Y116372D01*
X762055Y116368D01*
X763792Y116520D01*
G37*
G36*
X179592Y103820D02*
X179592Y103820D01*
X179635Y103832D01*
X179701Y103839D01*
X181384Y104290D01*
X181425Y104309D01*
X181488Y104328D01*
X183068Y105065D01*
X183105Y105091D01*
X183164Y105120D01*
X184592Y106120D01*
X184623Y106152D01*
X184676Y106191D01*
X185909Y107424D01*
X185934Y107460D01*
X185980Y107508D01*
X186980Y108936D01*
X186998Y108977D01*
X187035Y109032D01*
X187772Y110612D01*
X187783Y110655D01*
X187810Y110716D01*
X188261Y112399D01*
X188263Y112431D01*
X188270Y112452D01*
X188270Y112467D01*
X188280Y112508D01*
X188432Y114245D01*
X188428Y114289D01*
X188432Y114355D01*
X188280Y116092D01*
X188268Y116135D01*
X188261Y116201D01*
X187810Y117884D01*
X187791Y117925D01*
X187772Y117988D01*
X187035Y119568D01*
X187009Y119605D01*
X186980Y119664D01*
X185980Y121092D01*
X185948Y121123D01*
X185909Y121176D01*
X184676Y122409D01*
X184640Y122434D01*
X184592Y122480D01*
X183164Y123480D01*
X183123Y123498D01*
X183068Y123535D01*
X181488Y124272D01*
X181445Y124283D01*
X181384Y124310D01*
X179701Y124761D01*
X179656Y124764D01*
X179592Y124780D01*
X177855Y124932D01*
X177811Y124928D01*
X177745Y124932D01*
X176008Y124780D01*
X175965Y124768D01*
X175899Y124761D01*
X174216Y124310D01*
X174175Y124291D01*
X174112Y124272D01*
X172532Y123535D01*
X172495Y123509D01*
X172436Y123480D01*
X171008Y122480D01*
X170977Y122448D01*
X170924Y122409D01*
X169691Y121176D01*
X169666Y121140D01*
X169620Y121092D01*
X168620Y119664D01*
X168602Y119623D01*
X168565Y119568D01*
X167828Y117988D01*
X167817Y117945D01*
X167790Y117884D01*
X167339Y116201D01*
X167336Y116156D01*
X167320Y116092D01*
X167168Y114355D01*
X167172Y114311D01*
X167168Y114245D01*
X167320Y112508D01*
X167332Y112465D01*
X167336Y112431D01*
X167336Y112415D01*
X167338Y112410D01*
X167339Y112399D01*
X167790Y110716D01*
X167809Y110675D01*
X167828Y110612D01*
X168565Y109032D01*
X168591Y108995D01*
X168620Y108936D01*
X169620Y107508D01*
X169652Y107477D01*
X169691Y107424D01*
X170924Y106191D01*
X170960Y106166D01*
X171008Y106120D01*
X172436Y105120D01*
X172477Y105102D01*
X172532Y105065D01*
X174112Y104328D01*
X174155Y104317D01*
X174216Y104290D01*
X175899Y103839D01*
X175944Y103836D01*
X176008Y103820D01*
X177745Y103668D01*
X177789Y103672D01*
X177855Y103668D01*
X179592Y103820D01*
G37*
D10*
X139700Y647700D03*
X152400Y88900D03*
X800100Y101600D03*
X787400Y660400D03*
D11*
X314706Y177800D02*
X294894Y177800D01*
X294894Y228600D02*
X314706Y228600D01*
X314706Y279400D02*
X294894Y279400D01*
X396494Y177800D02*
X416306Y177800D01*
X416306Y228600D02*
X396494Y228600D01*
X396494Y279400D02*
X416306Y279400D01*
D12*
X355600Y177800D03*
D13*
X330200Y469900D03*
X355600Y469900D03*
X330200Y444500D03*
X355600Y444500D03*
X355600Y495300D03*
X330200Y495300D03*
D14*
X575200Y454600D03*
X575200Y462600D03*
X575200Y470600D03*
X575200Y478600D03*
X575200Y486600D03*
X575200Y494600D03*
X575200Y502600D03*
X575200Y510600D03*
D15*
X561400Y524400D03*
X553400Y524400D03*
X545400Y524400D03*
X537400Y524400D03*
X529400Y524400D03*
X521400Y524400D03*
X513400Y524400D03*
X505400Y524400D03*
D14*
X491600Y510600D03*
X491600Y502600D03*
X491600Y494600D03*
X491600Y486600D03*
X491600Y478600D03*
X491600Y470600D03*
X491600Y462600D03*
X491600Y454600D03*
D15*
X505400Y440800D03*
X513400Y440800D03*
X521400Y440800D03*
X529400Y440800D03*
X537400Y440800D03*
X545400Y440800D03*
X553400Y440800D03*
X561400Y440800D03*
D16*
X599400Y632400D03*
X574000Y632400D03*
X548600Y632400D03*
X523200Y632400D03*
X497800Y632400D03*
X472400Y632400D03*
X447000Y632400D03*
X421600Y632400D03*
X396200Y632400D03*
X370800Y632400D03*
X345400Y632400D03*
X320000Y632400D03*
X294600Y632400D03*
X269200Y632400D03*
X243800Y632400D03*
X218400Y632400D03*
D17*
X654400Y942400D03*
X-95600Y942400D03*
X654400Y632400D03*
X-95600Y632400D03*
D18*
X241300Y355600D03*
X215900Y355600D03*
X241300Y152400D03*
X215900Y152400D03*
D19*
X215900Y533400D03*
X266700Y533400D03*
X241300Y558800D03*
D20*
X596900Y200000D03*
X596900Y181000D03*
X596900Y276200D03*
X596900Y257200D03*
D21*
X581000Y330200D03*
X562000Y330200D03*
D20*
X546100Y200000D03*
X546100Y181000D03*
X546100Y276200D03*
X546100Y257200D03*
D21*
X473100Y330200D03*
X492100Y330200D03*
X492100Y279400D03*
X473100Y279400D03*
X492100Y228600D03*
X473100Y228600D03*
D20*
X241300Y250800D03*
X241300Y231800D03*
X241300Y454000D03*
X241300Y435000D03*
D21*
X295300Y533400D03*
X314300Y533400D03*
D22*
X710400Y409700D03*
X710600Y403200D03*
X710600Y396700D03*
X710400Y416200D03*
X710400Y422700D03*
D23*
X682000Y369050D03*
X681950Y450500D03*
D24*
X708900Y442200D03*
X708900Y377200D03*
D25*
X703400Y429700D03*
X703400Y389700D03*
D26*
X670400Y394700D03*
X670400Y424700D03*
D27*
X685800Y292100D03*
X685800Y190500D03*
M02*
