G04 EAGLE Gerber RS-274X export*
G75*
%MOMM*%
%FSLAX34Y34*%
%LPD*%
%INSoldermask Bottom*%
%IPPOS*%
%AMOC8*
5,1,8,0,0,1.08239X$1,22.5*%
G01*
%ADD10C,2.641600*%
%ADD11C,2.082800*%
%ADD12C,2.895600*%
%ADD13P,1.525737X8X112.500000*%
%ADD14C,1.778000*%
%ADD15C,2.601600*%
%ADD16P,1.539592X8X202.500000*%
%ADD17P,1.539592X8X22.500000*%
%ADD18C,0.601600*%
%ADD19R,5.181600X5.181600*%


D10*
X139700Y647700D03*
X152400Y88900D03*
X800100Y101600D03*
X787400Y660400D03*
D11*
X314706Y177800D02*
X294894Y177800D01*
X294894Y228600D02*
X314706Y228600D01*
X314706Y279400D02*
X294894Y279400D01*
X396494Y177800D02*
X416306Y177800D01*
X416306Y228600D02*
X396494Y228600D01*
X396494Y279400D02*
X416306Y279400D01*
D12*
X355600Y177800D03*
D13*
X330200Y469900D03*
X355600Y469900D03*
X330200Y444500D03*
X355600Y444500D03*
X355600Y495300D03*
X330200Y495300D03*
D14*
X599400Y632400D03*
X574000Y632400D03*
X548600Y632400D03*
X523200Y632400D03*
X497800Y632400D03*
X472400Y632400D03*
X447000Y632400D03*
X421600Y632400D03*
X396200Y632400D03*
X370800Y632400D03*
X345400Y632400D03*
X320000Y632400D03*
X294600Y632400D03*
X269200Y632400D03*
X243800Y632400D03*
X218400Y632400D03*
D15*
X654400Y942400D03*
X-95600Y942400D03*
X654400Y632400D03*
X-95600Y632400D03*
D16*
X241300Y355600D03*
X215900Y355600D03*
X241300Y152400D03*
X215900Y152400D03*
D17*
X215900Y533400D03*
X266700Y533400D03*
X241300Y558800D03*
D18*
X703400Y429700D03*
X703400Y389700D03*
D19*
X685800Y292100D03*
X685800Y190500D03*
M02*
